<svg width="11" height="15" viewBox="0 0 11 15" fill="none" xmlns="http://www.w3.org/2000/svg">
<path d="M5.35692 0C2.40326 0 0 2.47738 0 5.52245C0 6.31673 0.157705 7.07508 0.468499 7.77663C1.80788 10.7979 4.37584 13.9877 5.13116 14.8933C5.18775 14.961 5.27025 15 5.35707 15C5.44389 15 5.52639 14.961 5.58298 14.8933C6.338 13.9879 8.90596 10.7982 10.2458 7.77663C10.5567 7.07508 10.7143 6.31673 10.7143 5.52245C10.714 2.47738 8.31073 0 5.35692 0ZM5.35692 8.39083C3.82261 8.39083 2.57422 7.10394 2.57422 5.5223C2.57422 3.94051 3.82261 2.65361 5.35692 2.65361C6.89123 2.65361 8.13962 3.94051 8.13962 5.5223C8.13977 7.10394 6.89138 8.39083 5.35692 8.39083Z" fill="black"/>
</svg>
