<svg width="13" height="13" viewBox="0 0 13 13" fill="none" xmlns="http://www.w3.org/2000/svg">
<rect width="13" height="13" rx="2" fill="black"/>
<path d="M10.7974 3.17807C11.3749 3.17807 11.8447 2.70821 11.8447 2.13071C11.8447 1.5532 11.3749 1.08334 10.7974 1.08334C10.2199 1.08334 9.75 1.5532 9.75 2.13071C9.75 2.70821 10.2199 3.17807 10.7974 3.17807ZM10.7974 1.78159C10.9898 1.78159 11.1465 1.93824 11.1465 2.13071C11.1465 2.32318 10.9898 2.47983 10.7974 2.47983C10.6049 2.47983 10.4482 2.32318 10.4482 2.13071C10.4482 1.93824 10.6049 1.78159 10.7974 1.78159Z" fill="#FFC824"/>
<circle cx="6.49996" cy="6.49999" r="3.58333" stroke="#FFC824" stroke-width="1.5"/>
</svg>
