<svg width="13" height="13" viewBox="0 0 13 13" fill="none" xmlns="http://www.w3.org/2000/svg">
<rect width="13" height="13" rx="2" fill="#FFC824"/>
<path d="M10.7974 3.17806C11.3749 3.17806 11.8447 2.7082 11.8447 2.1307C11.8447 1.55319 11.3749 1.08334 10.7974 1.08334C10.2199 1.08334 9.75 1.55319 9.75 2.1307C9.75 2.7082 10.2199 3.17806 10.7974 3.17806ZM10.7974 1.78158C10.9898 1.78158 11.1465 1.93823 11.1465 2.1307C11.1465 2.32317 10.9898 2.47982 10.7974 2.47982C10.6049 2.47982 10.4482 2.32317 10.4482 2.1307C10.4482 1.93823 10.6049 1.78158 10.7974 1.78158Z" fill="#A02169"/>
<circle cx="6.49996" cy="6.5" r="3.58333" stroke="#A02169" stroke-width="1.5"/>
</svg>
