<svg width="14" height="14" viewBox="0 0 14 14" fill="none" xmlns="http://www.w3.org/2000/svg">
<path d="M13.6861 11.0641L11.524 8.90179C11.0934 8.47287 10.3802 8.4859 9.9346 8.93171L8.84533 10.0207C8.77651 9.98281 8.70528 9.94319 8.63039 9.90116C7.94253 9.52002 7.00108 8.99763 6.0104 8.00622C5.01678 7.01273 4.4939 6.06982 4.1116 5.38152C4.07126 5.3086 4.03261 5.2383 3.99444 5.17153L4.7255 4.44156L5.08491 4.0817C5.53124 3.63525 5.54355 2.92229 5.11391 2.49213L2.95183 0.329564C2.52219 -0.0999967 1.80871 -0.0869651 1.36238 0.359488L0.753031 0.972335L0.769683 0.988866C0.56536 1.24958 0.394622 1.55027 0.267564 1.87453C0.15044 2.18319 0.0775198 2.47773 0.0441766 2.77287C-0.241312 5.13963 0.84023 7.30268 3.7754 10.2379C7.83269 14.2949 11.1023 13.9884 11.2434 13.9735C11.5506 13.9367 11.845 13.8633 12.1442 13.7471C12.4657 13.6216 12.7662 13.4511 13.0267 13.2472L13.04 13.259L13.6573 12.6545C14.1027 12.2082 14.1156 11.495 13.6861 11.0641Z" fill="black"/>
</svg>
