<svg width="40" height="40" viewBox="0 0 40 40" fill="none" xmlns="http://www.w3.org/2000/svg">
<circle cx="20" cy="20" r="20" fill="#FFC824"/>
<path d="M11 11H9.5L9 12.5H7.5V14.5H9V16H11V14.5H13V12.5H11V11Z" fill="#F0950D"/>
<path d="M15.5 20.5V25.5V26H24V22.4783V21.5L23.4706 18.1739L22.4118 17H18.7059L18.1765 17.3913L16.6232 18.1739L15.5 20.5Z" fill="#F0950D"/>
<path d="M25.5 19.5L25 17.5V16.5L28.5 19L27 20.5L25.5 19.5Z" fill="#E34626"/>
<path d="M27 18L25.5 16.5L27.5 16H28.5V18.5L27 18Z" fill="#F0950D"/>
<path d="M17.5 10.5L16.5 12L17 12.5H19L18 11.5L17.5 10.5Z" fill="#E34626"/>
<path d="M23.5 10.5L24 12L23.5 12.5H21.5L22.5 11.5L23.5 10.5Z" fill="#E34626"/>
<path d="M19 7.99999L18 9.49999C18.2989 9.78267 18.8241 9.73142 20 9.49999C20.9995 8.81661 21.2907 8.4954 21.5 7.99999C20.9707 7.73025 20.482 7.69605 19 7.99999Z" fill="#E34626"/>
<path d="M8.76367 16.1699C8.76367 16.416 8.96289 16.6094 9.20312 16.6094H10.9668C11.2129 16.6094 11.4062 16.4102 11.4062 16.1699V14.8457H12.7305C12.9766 14.8457 13.1699 14.6465 13.1699 14.4062V12.6426C13.1699 12.3965 12.9707 12.2031 12.7305 12.2031H11.4062V10.8789C11.4062 10.6328 11.207 10.4395 10.9668 10.4395H9.20312C8.95703 10.4395 8.76367 10.6387 8.76367 10.8789V12.2031H7.43945C7.19336 12.2031 7 12.4023 7 12.6426V14.4062C7 14.6523 7.19922 14.8457 7.43945 14.8457H8.76367V16.1699ZM7.87891 13.9668V13.0879H9.20312C9.44922 13.0879 9.64258 12.8887 9.64258 12.6484V11.3242H10.5215V12.6484C10.5215 12.8945 10.7207 13.0879 10.9609 13.0879H12.2852V13.9668H10.9668C10.7207 13.9668 10.5273 14.166 10.5273 14.4062V15.7305H9.64844V14.4062C9.64844 14.1602 9.44922 13.9668 9.20898 13.9668H7.87891Z" fill="#A02169"/>
<path d="M23.0312 8.51172C22.4922 7.60938 21.5078 7 20.3769 7C19.2461 7 18.2617 7.60938 17.7227 8.51172C17.7168 8.52344 16.1758 11.1895 16.1758 11.1895C16.0586 11.3887 16 11.6172 16 11.8516C16 12.5781 16.5918 13.1758 17.3242 13.1758H23.4355C24.1621 13.1758 24.7598 12.584 24.7598 11.8516C24.7598 11.623 24.7012 11.3945 24.584 11.1895C24.5781 11.1895 23.0371 8.52344 23.0312 8.51172ZM20.3769 12.291C19.3047 12.291 18.4141 11.5234 18.2148 10.5098C19.6855 10.3867 21.0273 9.71875 22.0117 8.61133C22.3633 9.00391 22.5801 9.51953 22.5801 10.0879C22.5801 11.3008 21.5898 12.291 20.3769 12.291ZM20.3769 7.88477C20.7051 7.88477 21.0156 7.95508 21.2969 8.08398C20.4883 8.96289 19.4102 9.50195 18.2266 9.61914C18.4375 8.62891 19.3223 7.88477 20.3769 7.88477ZM17.3242 12.291C17.084 12.291 16.8848 12.0918 16.8848 11.8516C16.8848 11.7754 16.9023 11.6992 16.9434 11.6348L17.3945 10.8555C17.5352 11.4121 17.8281 11.9043 18.2266 12.291H17.3242ZM23.4297 12.291H22.5332C22.9316 11.9043 23.2246 11.4063 23.3652 10.8555L23.8164 11.6348C23.8574 11.7051 23.875 11.7754 23.875 11.8516C23.875 12.0918 23.6758 12.291 23.4297 12.291Z" fill="#A02169"/>
<path d="M24.3867 33.5781L22.9277 33.0918V26.3887H24.252C24.498 26.3887 24.6914 26.1895 24.6914 25.9492V22.1113C24.6914 21.2031 24.3809 20.3242 23.8125 19.6211V15.6719C23.8125 14.7812 23.0859 14.0547 22.1953 14.0547H19.2598C18.3691 14.0547 17.6426 14.7812 17.6426 15.6719V16.9199C16.0723 17.4766 15 18.9648 15 20.6582V25.9434C15 26.1895 15.1992 26.3828 15.4395 26.3828H18.5215V33.0918L17.0625 33.5781C16.834 33.6543 16.7051 33.9062 16.7813 34.1348C16.8457 34.3223 17.0156 34.4336 17.1973 34.4336C17.2441 34.4336 17.291 34.4277 17.3379 34.4102L19.1016 33.8242C19.2832 33.7656 19.4004 33.5957 19.4004 33.4082V26.3887H22.043V33.4082C22.043 33.5957 22.166 33.7656 22.3418 33.8242L24.1055 34.4102C24.1523 34.4277 24.1992 34.4336 24.2461 34.4336C24.4277 34.4336 24.6035 34.3164 24.6621 34.1348C24.7441 33.9062 24.6211 33.6602 24.3867 33.5781ZM19.2539 14.9336H22.1895C22.5938 14.9336 22.9219 15.2617 22.9219 15.666V16.8027H18.5156V15.666C18.5215 15.2617 18.8496 14.9336 19.2539 14.9336ZM15.8789 20.6641C15.8789 19.2754 16.8047 18.0566 18.1406 17.6934H22.9277V19.7852C22.9277 19.8906 22.9688 19.9961 23.0391 20.0781C23.5371 20.6406 23.8125 21.3672 23.8125 22.1172V25.5156H15.8789V20.6641Z" fill="#A02169"/>
<path d="M26.9375 12.291C25.7246 12.291 24.7344 13.2813 24.7344 14.4941V18.6074C24.7344 19.8203 25.7246 20.8105 26.9375 20.8105C28.1504 20.8105 29.1406 19.8203 29.1406 18.6074V14.4941C29.1406 13.2754 28.1504 12.291 26.9375 12.291ZM25.9414 16.457C26.2402 16.6094 26.5801 16.6973 26.9375 16.6973C27.4355 16.6973 27.8926 16.5332 28.2617 16.2578V18.1387C27.2422 17.9863 26.3867 17.3418 25.9414 16.457ZM26.9375 13.1699C27.6641 13.1699 28.2617 13.7617 28.2617 14.4941C28.2617 15.2266 27.6699 15.8184 26.9375 15.8184C26.2051 15.8184 25.6133 15.2266 25.6133 14.4941C25.6133 13.7617 26.2109 13.1699 26.9375 13.1699ZM26.9375 19.9258C26.2109 19.9258 25.6133 19.334 25.6133 18.6016V17.5645C26.2402 18.3379 27.1543 18.877 28.1914 19.0059C28.0215 19.5449 27.5234 19.9258 26.9375 19.9258Z" fill="#A02169"/>
</svg>
