<svg width="40" height="40" viewBox="0 0 40 40" fill="none" xmlns="http://www.w3.org/2000/svg">
<circle cx="20" cy="20" r="20" fill="#FFC824"/>
<path d="M17.5833 24.7708L14.2291 21.4167L16.1458 19.5H22.8541L17.5833 24.7708Z" fill="#E34626"/>
<path d="M24.2917 10.8751C23.6245 10.6618 23.3888 10.7272 23.3334 11.3542L27.1667 15.6667C28.2045 15.7045 28.3514 15.4548 28.125 14.7084L24.2917 10.8751Z" fill="#F0950D"/>
<path d="M28.125 8.47873C27.4578 8.26544 27.222 8.81021 27.1666 9.43723L29.5625 12.3122C30.6002 12.35 30.7472 11.6211 30.5208 10.8747L28.125 8.47873Z" fill="#F0950D"/>
<rect x="11.8334" y="22.375" width="2.34578" height="6.68491" transform="rotate(-44.0327 11.8334 22.375)" fill="#F0950D"/>
<rect x="11.8134" y="24.5786" width="1.524" height="3.70839" transform="rotate(-44.0327 11.8134 24.5786)" fill="#F0950D"/>
<path d="M28.1859 8H27.7062C27.0677 8 26.5484 8.51932 26.5484 9.15783C26.5484 9.46721 26.6687 9.75793 26.8875 9.97656L27.1367 10.2258L25.8065 11.5561L24.8153 10.5649C24.5997 10.3493 24.3014 10.2258 23.9965 10.2258C23.358 10.2258 22.8387 10.7451 22.8387 11.3836V11.8633L23.0561 12.0806L14.3065 20.8303L13.5645 20.0883L11.1851 22.4677L12.298 23.5806L11.1851 24.6935L11.9379 25.4462L8.59866 29.0896C8.21265 29.5109 8 30.0577 8 30.629V31H8.37097C8.94263 31 9.48985 30.7873 9.91045 30.4013L13.5535 27.0621L14.3065 27.8149L15.4194 26.702L16.5323 27.8149L18.9117 25.4355L18.1697 24.6935L26.9194 15.9439L27.1367 16.1613H27.6164C28.2549 16.1613 28.7742 15.642 28.7742 15.0035C28.7742 14.6941 28.6539 14.4034 28.4351 14.1847L27.4439 13.1935L28.7742 11.8633L29.0234 12.1125C29.239 12.3281 29.5373 12.4516 29.8422 12.4516C30.4807 12.4516 31 11.9323 31 11.2938V10.8141L28.1859 8ZM9.40924 29.8545C9.23426 30.0148 9.02759 30.1309 8.80388 30.1961C8.86964 29.9728 8.9852 29.7657 9.14587 29.5908L12.463 25.9715L13.0285 26.537L9.40924 29.8545ZM14.3065 26.7658L12.2342 24.6935L12.8226 24.1052L14.8948 26.1774L14.3065 26.7658ZM16.5323 26.7658L12.2342 22.4677L13.5645 21.1375L17.8625 25.4355L16.5323 26.7658ZM14.831 21.3548L16.3149 19.871H21.9432L17.6452 24.169L14.831 21.3548ZM22.6851 19.129H17.0568L19.129 17.0568L19.9796 17.9074L20.5042 17.3829L19.6536 16.5323L20.2419 15.9439L21.4635 17.1655L21.9881 16.6409L20.7665 15.4194L21.3548 14.831L22.2055 15.6816L22.73 15.1571L21.8794 14.3065L22.4677 13.7181L23.6893 14.9397L24.2139 14.4151L22.9923 13.1935L23.5806 12.6052L26.3948 15.4194L22.6851 19.129ZM28.0323 15.0035C28.0323 15.2328 27.8457 15.4194 27.6164 15.4194H27.4439L23.5806 11.5561V11.3836C23.5806 11.1543 23.7672 10.9677 23.9965 10.9677C24.1059 10.9677 24.2132 11.0123 24.2907 11.0895L27.9105 14.7093C27.9891 14.7879 28.0323 14.8922 28.0323 15.0035ZM26.9194 12.669L26.331 12.0806L27.6613 10.7504L28.2496 11.3387L26.9194 12.669ZM30.2581 11.2938C30.2581 11.5231 30.0715 11.7097 29.8422 11.7097C29.7328 11.7097 29.6255 11.6651 29.548 11.588L27.412 9.45199C27.3334 9.37338 27.2903 9.26904 27.2903 9.15783C27.2903 8.92851 27.4769 8.74194 27.7062 8.74194H27.8787L30.2581 11.1213V11.2938Z" fill="#A02169"/>
</svg>
