<svg width="40" height="40" viewBox="0 0 40 40" fill="none" xmlns="http://www.w3.org/2000/svg">
<circle cx="20" cy="20" r="20" fill="#FFC824"/>
<path d="M11.5 28L16 20H23.5L28.5 28.5C28.4764 29.6093 28.1209 30.0293 27 30.5H12.5C11.7752 30.0189 11.5319 29.5051 11.5 28Z" fill="#E34626"/>
<circle cx="20" cy="20" r="1" fill="#F0950D"/>
<ellipse cx="16.75" cy="24" rx="1.25" ry="1" fill="#F0950D"/>
<ellipse cx="21.75" cy="27.5" rx="1.25" ry="1" fill="#F0950D"/>
<path d="M17.5 8.5H22.5V9.5H17.5V8.5Z" fill="#F0950D"/>
<path d="M15.2664 24.0224C15.2664 24.8585 15.9467 25.5389 16.7829 25.5389C17.6191 25.5389 18.2994 24.8585 18.2994 24.0224C18.2994 23.1862 17.6191 22.5059 16.7829 22.5059C15.9467 22.5059 15.2664 23.1862 15.2664 24.0224ZM17.6244 24.0224C17.6244 24.4864 17.2469 24.8639 16.7829 24.8639C16.3189 24.8639 15.9413 24.4864 15.9413 24.0224C15.9413 23.5583 16.3188 23.1808 16.7829 23.1808C17.247 23.1808 17.6244 23.5583 17.6244 24.0224Z" fill="#A02169"/>
<path d="M20.3555 27.5177C20.3555 28.3849 21.061 29.0905 21.9283 29.0905C22.7956 29.0905 23.5011 28.3849 23.5011 27.5177C23.5011 26.6504 22.7956 25.9448 21.9283 25.9448C21.061 25.9448 20.3555 26.6504 20.3555 27.5177ZM22.8262 27.5177C22.8262 28.0128 22.4234 28.4155 21.9283 28.4155C21.4332 28.4155 21.0304 28.0128 21.0304 27.5177C21.0304 27.0226 21.4332 26.6198 21.9283 26.6198C22.4234 26.6198 22.8262 27.0226 22.8262 27.5177Z" fill="#A02169"/>
<path d="M28.6911 27.5027C28.6899 27.5006 28.6887 27.4985 28.6875 27.4965L27.8059 26.0064C27.711 25.8461 27.5041 25.7929 27.3436 25.8878C27.1832 25.9827 27.1301 26.1897 27.225 26.3501L28.1047 27.837C28.4024 28.3677 28.3968 28.9979 28.0897 29.5234C27.7822 30.0496 27.2348 30.3637 26.6255 30.3637H13.3745C12.7652 30.3637 12.2178 30.0496 11.9103 29.5234C11.6032 28.9978 11.5976 28.3677 11.8953 27.8369L16.284 20.4193H19.0051C19.2041 20.8704 19.6557 21.1861 20.1796 21.1861C20.7035 21.1861 21.1551 20.8704 21.3541 20.4193H23.716L27.225 26.3501C27.288 26.4566 27.7796 26.8149 27.895 26.8149C27.9534 26.8149 27.5471 26.382 27.601 26.3501C27.7614 26.2552 27.9008 26.1668 27.8059 26.0064L22.8924 17.7018C22.3985 16.867 22.1374 15.913 22.1374 14.9429V10.1032C22.6461 10.0269 23.0374 9.58701 23.0374 9.05744C23.0373 8.47436 22.563 8 21.9799 8H21.4508C21.2644 8 21.1133 8.15106 21.1133 8.33748C21.1133 8.5239 21.2644 8.67496 21.4508 8.67496H21.9799C22.1908 8.67496 22.3624 8.84654 22.3624 9.05744C22.3624 9.26834 22.1908 9.43992 21.9799 9.43992H18.0201C17.8092 9.43992 17.6376 9.26834 17.6376 9.05744C17.6376 8.84654 17.8092 8.67496 18.0201 8.67496H21.4624C21.6488 8.67496 21.5714 8.5239 21.5714 8.33748C21.5714 8.15106 21.5538 8 21.3674 8H18.0201C17.437 8 16.9627 8.47436 16.9627 9.05744C16.9627 9.58701 17.354 10.0269 17.8626 10.1032V14.7796C17.8626 14.966 18.0137 14.8816 18.2001 14.8816C18.3865 14.8816 18.5376 15.1491 18.5376 14.9626L18.5376 10.1149H21.4624V14.9429C21.4624 16.0338 21.756 17.1067 22.3115 18.0455L23.3166 19.7443H21.4527C21.3742 19.1116 20.8332 18.6203 20.1796 18.6203C19.526 18.6203 18.985 19.1117 18.9065 19.7443H16.6834L17.6885 18.0455C18.244 17.1067 18.5376 16.0338 18.5376 14.9429V14.6661C18.5376 14.4797 18.3865 14.3286 18.2001 14.3286C18.0137 14.3286 17.8626 14.4797 17.8626 14.6661V14.9429C17.8626 15.913 17.6016 16.867 17.1076 17.7018L11.3125 27.4965C11.3113 27.4985 11.3101 27.5006 11.3089 27.5027C10.8906 28.2454 10.8975 29.1281 11.3275 29.864C11.7574 30.5995 12.5227 31.0387 13.3745 31.0387H26.6255C27.4774 31.0387 28.2426 30.5995 28.6724 29.864C29.1025 29.1281 29.1095 28.2454 28.6911 27.5027ZM20.1796 19.2953C20.5149 19.2953 20.7876 19.568 20.7876 19.9032C20.7876 19.9387 20.7845 19.9734 20.7787 20.0071C20.7771 20.0143 20.7757 20.0215 20.7745 20.0287C20.7165 20.3039 20.4718 20.5112 20.1796 20.5112C19.8864 20.5112 19.641 20.3025 19.5841 20.0259C19.5832 20.0206 19.5822 20.0152 19.5811 20.01C19.5749 19.9753 19.5717 19.9396 19.5717 19.9032C19.5716 19.568 19.8444 19.2953 20.1796 19.2953Z" fill="#A02169"/>
</svg>
