<svg width="40" height="40" viewBox="0 0 40 40" fill="none" xmlns="http://www.w3.org/2000/svg">
<circle cx="20" cy="20" r="20" fill="#FFC824"/>
<ellipse cx="13.28" cy="27.4089" rx="1.52" ry="1.72727" fill="#F0950D"/>
<ellipse cx="27.72" cy="27.4089" rx="1.52" ry="1.72727" fill="#F0950D"/>
<path d="M11.38 14.4546H29.62L30 15.75L29.62 17.0455H11.38L11 15.75L11.38 14.4546Z" fill="#E34626"/>
<path d="M11.76 11H15.94V12.7273H11.76V11Z" fill="#F0950D"/>
<path d="M12.2667 17.0454C16.697 19.3525 21.1364 21.6597 25.5667 23.9545" stroke="#A02169" stroke-miterlimit="10"/>
<path d="M28.7333 17.0454C24.3031 19.3525 19.8636 21.6597 15.4333 23.9545" stroke="#A02169" stroke-miterlimit="10"/>
<path d="M13.5333 25.6654C13.5333 25.1061 13.5333 24.5468 13.5333 23.9875C18.1809 23.971 22.8284 23.971 27.4667 23.9546C27.4667 24.5303 27.4667 25.1061 27.4667 25.6819" stroke="#A02169" stroke-miterlimit="10"/>
<path d="M13.508 29.1362C14.3475 29.1362 15.028 28.3629 15.028 27.4089C15.028 26.455 14.3475 25.6816 13.508 25.6816C12.6686 25.6816 11.988 26.455 11.988 27.4089C11.988 28.3629 12.6686 29.1362 13.508 29.1362Z" stroke="#A02169" stroke-miterlimit="10"/>
<path d="M27.492 29.1362C28.3315 29.1362 29.012 28.3629 29.012 27.4089C29.012 26.455 28.3315 25.6816 27.492 25.6816C26.6526 25.6816 25.972 26.455 25.972 27.4089C25.972 28.3629 26.6526 29.1362 27.492 29.1362Z" stroke="#A02169" stroke-miterlimit="10"/>
<path d="M29.0384 17.0455H11.9614C11.4284 17.0455 11 16.4555 11 15.75C11 15.0318 11.4379 14.4546 11.9614 14.4546H29.0384C29.5715 14.4546 29.9998 15.0446 29.9998 15.75C30.0094 16.4683 29.5715 17.0455 29.0384 17.0455Z" stroke="#A02169" stroke-miterlimit="10"/>
<path d="M24.3 14.4543H17.3334V13.1319C17.3334 12.916 17.4538 12.7271 17.6113 12.7271H24.0221C24.1703 12.7271 24.3 12.9025 24.3 13.1319V14.4543Z" stroke="#A02169" stroke-miterlimit="10"/>
<path d="M15.3449 12.7273H12.355C11.9613 12.7273 11.6333 12.3459 11.6333 11.8636C11.6333 11.3926 11.952 11 12.355 11H15.3449C15.7386 11 16.0666 11.3813 16.0666 11.8636C16.0666 12.3459 15.7386 12.7273 15.3449 12.7273Z" stroke="#A02169" stroke-miterlimit="10"/>
</svg>
