<svg width="40" height="40" viewBox="0 0 40 40" fill="none" xmlns="http://www.w3.org/2000/svg">
<circle cx="20" cy="20" r="20" fill="#FFC824"/>
<path d="M12.913 30.4054L13.3043 32.5676H18.5L18 27.5L16.5 25L12.913 21.7568H11.7391L10.5652 17.4324L9.5 16.5L8.5 17L10.9565 27.8108L12.913 30.4054Z" fill="#F6AF1B"/>
<path d="M27 29.5002L26.2174 31.5678V32.5002H21V29.0002L22 26.5002L23.1739 24.6488L26.5 21.5002H27.5L29.2609 16.4326L30 16.5002L31.5 17.5002L28.8261 26.811L27 29.5002Z" fill="#F6AF1B"/>
<path d="M17.7714 18.9062L17.2089 15.1875L17.6464 12.5625L23.3339 16.5V17.8125C23.3339 17.8125 21.5839 20.4375 20.7089 20.4375C19.8339 20.4375 17.7714 18.9062 17.7714 18.9062Z" fill="#E34626"/>
<path d="M20.2714 14.75L17.6464 12.3L20.7089 12.5625L22.8964 11.25L23.3339 16.0625L20.2714 14.75Z" fill="#F0950D"/>
<rect x="17.2714" y="6.5" width="6" height="13.875" rx="3" stroke="#A02169"/>
<circle cx="20.2714" cy="9.5" r="3" stroke="#A02169"/>
<path d="M17.2089 11.6875C19.0038 14.394 20.305 15.5455 23.3339 16.0625" stroke="#A02169"/>
<path d="M18.6224 27.8682C18.2295 26.5881 17.5406 25.4185 16.6116 24.4541L13.7429 21.4815C13.5271 21.2581 13.2513 21.1018 12.9488 21.0314C12.6462 20.961 12.3298 20.9795 12.0375 21.0846L11.0725 17.2239C10.9682 16.809 10.7039 16.4522 10.3373 16.2317C9.9707 16.0111 9.53169 15.9447 9.11626 16.0469C8.90926 16.0976 8.71433 16.1887 8.5427 16.315C8.37107 16.4414 8.22612 16.6004 8.11619 16.783C8.00627 16.9655 7.93355 17.1681 7.90221 17.3789C7.87087 17.5897 7.88154 17.8046 7.9336 18.0112L10.0663 26.5613C10.2893 27.4571 10.7444 28.2784 11.3857 28.9424L11.8959 29.4733C12.5798 30.2334 12.9379 31.2317 12.8932 32.2533V32.6579C12.8932 32.7652 12.9359 32.8681 13.0117 32.944C13.0876 33.0199 13.1905 33.0625 13.2978 33.0625H18.5577C18.665 33.0625 18.7679 33.0199 18.8438 32.944C18.9197 32.8681 18.9623 32.7652 18.9623 32.6579V30.643C18.9973 29.722 18.8881 28.8012 18.6386 27.9139L18.6224 27.8682ZM18.1531 32.2533H13.7024C13.7495 31.0221 13.3101 29.8219 12.4793 28.9121L11.9687 28.3804C11.4257 27.8186 11.0402 27.1237 10.8512 26.3655L8.71893 17.813C8.68328 17.675 8.68527 17.5299 8.72469 17.3929C8.76411 17.256 8.83953 17.1321 8.94309 17.0341C9.04525 16.9346 9.1725 16.8647 9.31128 16.8318C9.51893 16.7809 9.73831 16.8142 9.92147 16.9245C10.1046 17.0348 10.2367 17.2131 10.2888 17.4205L11.3266 21.5798C11.0754 21.8886 10.9462 22.2787 10.9633 22.6764C10.9805 23.074 11.1428 23.4516 11.4197 23.7376L14.506 26.9311L15.0878 26.3687L12.0031 23.1756C11.8622 23.0326 11.7794 22.8423 11.771 22.6416C11.7625 22.441 11.829 22.2444 11.9574 22.09C12.04 21.9905 12.1469 21.9138 12.2677 21.8675C12.3687 21.8195 12.4796 21.796 12.5914 21.7987C12.8067 21.8023 13.0119 21.8911 13.1619 22.0455L16.0297 25.0161C16.8731 25.8927 17.4979 26.9558 17.8533 28.1191L17.8691 28.1636C18.0909 28.9677 18.1868 29.8014 18.1531 30.6349V32.2533Z" fill="#A02169"/>
<path d="M31.164 16.4535C30.9596 16.2554 30.7059 16.1157 30.4292 16.0489C30.0131 15.9466 29.5735 16.013 29.2062 16.2335C28.8389 16.4541 28.5737 16.811 28.4685 17.2263L27.5059 21.0862C27.3245 21.0202 27.1326 20.9876 26.9395 20.9899C26.5093 20.997 26.0995 21.1745 25.8001 21.4836L22.9335 24.4538C22.0072 25.4143 21.3197 26.5792 20.9267 27.8545L20.9012 27.9289C20.6548 28.8088 20.5466 29.7217 20.5807 30.6349V32.6579C20.5807 32.7652 20.6233 32.8681 20.6992 32.944C20.7751 33.0199 20.878 33.0625 20.9853 33.0625H26.2452C26.3525 33.0625 26.4554 33.0199 26.5313 32.944C26.6072 32.8681 26.6498 32.7652 26.6498 32.6579V32.2533C26.6051 31.2314 26.9636 30.2327 27.6479 29.4725L28.1561 28.9436C28.798 28.2793 29.2537 27.4577 29.4772 26.5613L31.609 18.0112C31.6803 17.7355 31.6766 17.4457 31.5984 17.1718C31.5201 16.898 31.3702 16.65 31.164 16.4535V16.4535ZM30.8237 17.8138L28.6922 26.3655C28.5027 27.1242 28.1167 27.8195 27.5731 28.3817L27.0645 28.9113C26.2333 29.8212 25.7936 31.0218 25.8406 32.2533H21.3899V30.6268C21.3567 29.8012 21.4509 28.9755 21.6691 28.1785L21.6942 28.1057C22.05 26.947 22.6737 25.8884 23.5149 25.0157L26.3803 22.0472C26.5305 21.8921 26.7358 21.8028 26.9516 21.7987C27.0769 21.7983 27.2006 21.827 27.3129 21.8825C27.4196 21.9273 27.5135 21.9978 27.5864 22.0876C27.7159 22.2419 27.7832 22.439 27.7751 22.6403C27.7671 22.8416 27.6842 23.0326 27.5427 23.176L24.4564 26.3696L25.0382 26.932L28.1246 23.7388C28.4014 23.4527 28.5637 23.0751 28.5808 22.6774C28.598 22.2797 28.4688 21.8895 28.2176 21.5807L29.255 17.4225C29.2808 17.3194 29.3266 17.2223 29.3898 17.1369C29.4531 17.0514 29.5326 16.9793 29.6238 16.9246C29.7149 16.8699 29.816 16.8337 29.9211 16.818C30.0263 16.8024 30.1335 16.8076 30.2366 16.8334C30.3398 16.8588 30.4369 16.9044 30.5225 16.9675C30.608 17.0306 30.6801 17.11 30.7348 17.2012C30.7895 17.2923 30.8256 17.3933 30.8411 17.4985C30.8565 17.6036 30.851 17.7108 30.8249 17.8138H30.8237Z" fill="#A02169"/>
</svg>
