<svg width="40" height="40" viewBox="0 0 40 40" fill="none" xmlns="http://www.w3.org/2000/svg">
<circle cx="20" cy="20" r="20" fill="#FFC824"/>
<path d="M28.3165 19.5059C28.3165 24.2003 24.511 28.5059 19.8165 28.5059C15.1221 28.5059 11 24.2004 11 19.506C11 14.8116 15.1221 11.0059 19.8165 11.0059C24.511 11.0059 28.3165 14.8114 28.3165 19.5059Z" fill="#F0950D"/>
<path d="M32.3125 19.6562C32.3125 17.0219 31.5109 14.4972 29.995 12.3545L29.2295 12.8955C30.633 14.8797 31.375 17.2173 31.375 19.6562C31.375 26.118 26.118 31.375 19.6562 31.375C13.1945 31.375 7.9375 26.118 7.9375 19.6562C7.9375 13.1945 13.1945 7.9375 19.6562 7.9375C22.4898 7.9375 25.1538 8.92891 27.2734 10.75H24.8125V11.6875H28.5625C28.8217 11.6875 29.0312 11.478 29.0312 11.2188V7.46875H28.0938V10.2269C25.7716 8.14094 22.8119 7 19.6562 7C12.6775 7 7 12.6775 7 19.6562C7 26.635 12.6775 32.3125 19.6562 32.3125C26.635 32.3125 32.3125 26.635 32.3125 19.6562V19.6562Z" fill="#A02169"/>
<path d="M19.6562 10.2812C14.4869 10.2812 10.2812 14.4869 10.2812 19.6562C10.2812 24.8256 14.4869 29.0312 19.6562 29.0312C24.8256 29.0312 29.0312 24.8256 29.0312 19.6562C29.0312 14.4869 24.8256 10.2812 19.6562 10.2812ZM28.0698 20.125C27.9606 22.0975 27.1745 23.8881 25.9352 25.2723L24.6752 24.0123L24.0123 24.6752L25.2723 25.9352C23.8881 27.1745 22.0975 27.9606 20.125 28.0698V26.2188H19.1875V28.0698C17.215 27.9606 15.4244 27.1745 14.0402 25.9352L15.3002 24.6752L14.6373 24.0123L13.3773 25.2723C12.138 23.8881 11.3519 22.0975 11.2427 20.125H13.0938V19.1875H11.2427C11.3519 17.215 12.138 15.4244 13.3773 14.0402L14.6373 15.3002L15.3002 14.6373L14.0402 13.3773C15.4244 12.138 17.215 11.3519 19.1875 11.2427V13.0938H20.125V11.2427C22.0975 11.3519 23.8881 12.138 25.2723 13.3773L24.0123 14.6373L24.6752 15.3002L25.9352 14.0402C27.1745 15.4244 27.9606 17.215 28.0698 19.1875H26.2188V20.125H28.0698Z" fill="#E34626"/>
<path d="M18.7188 16.8438H15.4375C15.1783 16.8438 14.9688 17.0533 14.9688 17.3125V18.7188H15.9062V17.7812H18.25V18.8786L15.2528 20.163C15.0803 20.2366 14.9688 20.4062 14.9688 20.5938V22C14.9688 22.2592 15.1783 22.4688 15.4375 22.4688H19.1875V21.5312H15.9062V20.9027L18.9034 19.6183C19.0759 19.5447 19.1875 19.375 19.1875 19.1875V17.3125C19.1875 17.0533 18.978 16.8438 18.7188 16.8438V16.8438Z" fill="#A02169"/>
<path d="M23.4062 19.6562H21.0625V16.8438H20.125V20.125C20.125 20.3842 20.3345 20.5938 20.5938 20.5938H23.4062V22.4688H24.3438V16.8438H23.4062V19.6562Z" fill="#A02169"/>
</svg>
