<svg width="40" height="40" viewBox="0 0 40 40" fill="none" xmlns="http://www.w3.org/2000/svg">
<circle cx="20" cy="20" r="20" fill="#FFC824"/>
<rect x="15.9" y="12.4502" width="15.3" height="11.7" fill="#E34626"/>
<ellipse cx="11.4" cy="26.4004" rx="1.8" ry="2.25" fill="#F0950D"/>
<circle cx="27.15" cy="26.4004" r="2.25" fill="#F0950D"/>
<path d="M24.45 16.0503H22.65V17.4003H21.3V19.2003H22.65V21.0003H24.45V19.2003H26.25V17.4003H24.45V16.0503Z" fill="#FFC824"/>
<path d="M32.4727 23.6805H31.7131L31.713 12.5273C31.713 12.2361 31.4769 12 31.1857 12H25.8908C25.5996 12 25.3634 12.2361 25.3634 12.5273C25.3634 12.8186 25.5996 13.0547 25.8908 13.0547H30.6583L30.6584 23.6805H16.4489V13.0547L26.1586 13.0547C26.4498 13.0547 26.3766 12.8186 26.3766 12.5274C26.3766 12.2361 26.5412 12.0004 26.25 12.0004L15.9216 12.0001C15.6304 12.0001 15.3943 12.2361 15.3943 12.5274V14.1731H14.1538V13.6602C14.1538 12.7799 13.4376 12.0637 12.5573 12.0637C11.677 12.0637 10.9608 12.7799 10.9608 13.6602V14.1731H10.353C9.76977 14.1731 9.25535 14.5453 9.07288 15.0992L7.3568 20.3087L6.50346 20.9945C6.18346 21.2517 6 21.6346 6 22.0451V25.7562C6 26.4994 6.60465 27.1041 7.34784 27.1041H8.756C8.99927 28.2436 10.0135 29.101 11.2245 29.101C12.4355 29.101 13.4498 28.2437 13.693 27.1041H24.5129C24.7562 28.2436 25.7704 29.101 26.9814 29.101C28.1925 29.101 29.2067 28.2437 29.4499 27.1041H32.4727C32.7639 27.1041 33 26.868 33 26.5767V24.2079C33 23.9167 32.7639 23.6805 32.4727 23.6805ZM12.0155 13.6602C12.0155 13.3614 12.2585 13.1184 12.5573 13.1184C12.856 13.1184 13.099 13.3614 13.099 13.6602V14.1731H12.0154L12.0155 13.6602ZM9.45969 17.2961H10.7092C10.7876 17.2961 10.8515 17.36 10.8515 17.4385V18.6807C10.8515 19.4604 10.2172 20.0948 9.43738 20.0948H8.53774L9.45969 17.2961ZM7.05469 25.7562V22.0451C7.05469 21.9558 7.09461 21.8725 7.16416 21.8166L7.99415 21.1495H9.43738C10.7987 21.1495 11.9062 20.042 11.9062 18.6807V17.4385C11.9062 16.7785 11.3692 16.2415 10.7092 16.2415H9.80705L10.0746 15.4292C10.1143 15.3087 10.2262 15.2278 10.353 15.2278H15.3941V26.0494H13.6934C13.4388 24.8562 12.3213 23.9977 11.1037 24.0553C10.2393 24.0962 9.43912 24.5961 9.0183 25.3514C8.89696 25.5692 8.80747 25.8055 8.75548 26.0494H7.34784C7.18615 26.0493 7.05469 25.9179 7.05469 25.7562ZM11.2244 28.0463C10.4141 28.0463 9.75479 27.387 9.75479 26.5766C9.75479 25.7767 10.4243 25.107 11.2244 25.107C12.0348 25.107 12.6941 25.7663 12.6941 26.5766C12.6941 27.387 12.0348 28.0463 11.2244 28.0463ZM16.4488 24.7352L25.2563 24.7354C24.883 25.0855 24.6192 25.5485 24.5125 26.0494H16.4488V24.7352ZM26.9814 28.0463C26.1711 28.0463 25.5118 27.387 25.5118 26.5766C25.5118 26.3442 25.5662 26.1243 25.6627 25.9287C25.9026 25.4424 26.4035 25.107 26.9814 25.107C27.5593 25.107 28.0603 25.4424 28.3002 25.9287C28.3966 26.1243 28.4511 26.3442 28.4511 26.5766C28.4511 27.387 27.7918 28.0463 26.9814 28.0463ZM31.9453 26.0493H29.4504C29.3436 25.5486 29.0799 25.0853 28.7066 24.7354L31.9453 24.7352V26.0493Z" fill="#A02169"/>
<path d="M20.3208 17.3428V19.565C20.3208 19.8562 20.5569 20.0923 20.8481 20.0923H21.8384V21.1353C21.8384 21.4265 22.0745 21.6626 22.3657 21.6626H24.6934C24.9846 21.6626 25.2207 21.4265 25.2207 21.1353V20.0923H26.211C26.5022 20.0923 26.7383 19.8562 26.7383 19.565V17.3428C26.7383 17.0515 26.5022 16.8154 26.211 16.8154H25.2207V15.7725C25.2207 15.4812 24.9846 15.2451 24.6934 15.2451H22.3657C22.0745 15.2451 21.8384 15.4812 21.8384 15.7725V16.8154H20.8481C20.5569 16.8154 20.3208 17.0515 20.3208 17.3428V17.3428ZM21.3755 17.8701H22.3657C22.6569 17.8701 22.8931 17.634 22.8931 17.3428V16.2998H24.166V17.3428C24.166 17.634 24.4022 17.8701 24.6934 17.8701H25.6836V19.0376H24.6934C24.4022 19.0376 24.166 19.2737 24.166 19.565V20.6079H22.8931V19.565C22.8931 19.2737 22.6569 19.0376 22.3657 19.0376H21.3755V17.8701Z" fill="#A02169"/>
</svg>
