<svg width="40" height="40" viewBox="0 0 40 40" fill="none" xmlns="http://www.w3.org/2000/svg">
<path d="M40 20C40 31.0457 31.0457 40 20 40C8.9543 40 -4.40584e-06 31.0457 -4.40584e-06 20C-4.40584e-06 8.9543 8.9543 0 20 0C31.0457 0 40 8.9543 40 20Z" fill="#FFC824"/>
<circle cx="16.5" cy="12.5" r="4.5" fill="#F0950D"/>
<path d="M27 21C26.5 22 26.5 24.5 26.5 24.5L27.5 25.5C27.5 25.5 28 25.5 30 25C32 24.5 33 23.5 33.5 22.5C34 21.5 32 19 30.5 19C29 19 27.5 20 27 21Z" fill="#E34626"/>
<path d="M24.3184 11.4094C24.3178 11.4088 24.3173 11.4088 24.3167 11.4088C23.5457 10.8301 22.6324 10.5243 21.6751 10.5243C21.5092 10.5243 21.3406 10.5369 21.1681 10.5584C20.6307 9.46057 19.7026 8.58923 18.5629 8.12903C19.017 7.64734 19.5874 7.26761 20.2152 7.03172L19.8277 6C19.0357 6.29706 18.316 6.77765 17.745 7.38886C17.6127 7.5305 17.4953 7.67435 17.3862 7.8193C17.1657 7.78953 16.9431 7.76859 16.7149 7.76859C13.9796 7.76859 11.7547 9.99407 11.7547 12.7288C11.7547 15.4635 13.9796 17.689 16.7149 17.689C17.1905 17.689 17.6496 17.6179 18.0856 17.4923C18.7155 18.3741 19.6536 18.9996 20.7184 19.2355C20.7189 19.2355 20.7189 19.236 20.7195 19.236C21.0391 19.3066 21.361 19.3424 21.6751 19.3424C22.7245 19.3424 23.7435 18.9643 24.5432 18.2787C24.5438 18.2782 24.5438 18.2782 24.5443 18.2776C25.5226 17.4377 26.0842 16.2186 26.0842 14.9333C26.0842 13.5368 25.4405 12.2526 24.3184 11.4094ZM16.7149 16.5867C14.5881 16.5867 12.857 14.8562 12.857 12.7288C12.857 10.6014 14.5881 8.87086 16.7149 8.87086C16.7298 8.87086 16.7436 8.87306 16.7585 8.87306C16.543 9.352 16.4228 9.80117 16.3567 10.1649L17.4408 10.3628C17.5063 10.0034 17.6381 9.54049 17.8965 9.05769C19.017 9.41924 19.9115 10.2801 20.3237 11.3769C20.3629 11.4816 20.3976 11.5869 20.4274 11.6927C20.4312 11.7064 20.4345 11.7202 20.4378 11.734C20.4637 11.8299 20.4863 11.9258 20.5051 12.0228C20.5128 12.0652 20.5183 12.1082 20.5249 12.1507C20.5359 12.2223 20.5475 12.294 20.5547 12.3662C20.5657 12.4852 20.5729 12.6064 20.5729 12.7288C20.5729 13.0126 20.5381 13.3069 20.4692 13.6035C20.0708 15.3103 18.5408 16.5867 16.7149 16.5867ZM20.4301 17.9954C19.9297 17.7915 19.4882 17.4653 19.1405 17.0508C19.9545 16.5923 20.628 15.9133 21.0749 15.0921L20.4301 17.9954ZM24.9362 14.3822H22.7774L24.0709 12.6583C24.5283 13.1361 24.8282 13.7324 24.9362 14.3822ZM23.1891 11.9958L22.7074 12.6379L21.744 13.922L21.5875 13.6398C21.615 13.4921 21.6376 13.3422 21.6514 13.1901C21.6669 13.0358 21.6751 12.8815 21.6751 12.7288C21.6751 12.5464 21.6635 12.3667 21.6443 12.1892C21.6415 12.1633 21.636 12.138 21.6327 12.1121C21.6128 11.9528 21.5858 11.7957 21.5511 11.6414C21.5506 11.6376 21.55 11.6337 21.5489 11.6293C22.1397 11.6034 22.6859 11.7346 23.1891 11.9958ZM21.5059 18.2357L21.9738 16.1293L23.377 17.7662C22.8171 18.1029 22.1695 18.2699 21.5059 18.2357ZM24.2136 17.048L22.8738 15.4845H24.9356C24.8381 16.0593 24.589 16.5989 24.2136 17.048Z" fill="#A02169"/>
<path d="M18.1218 21.9107C18.1364 21.7065 18.1171 21.5005 18.0637 21.2995C17.7941 20.2853 16.75 19.6797 15.7357 19.9493C15.1752 20.0983 14.7227 20.4977 14.4923 21.0123C14.0511 20.9046 13.5726 20.96 13.167 21.1731C12.6734 20.9534 12.126 20.9089 11.5977 21.0493C10.3301 21.3862 9.57301 22.6917 9.90997 23.9593C8.89571 24.2289 8.29013 25.273 8.55975 26.2872C8.64249 26.5985 8.79906 26.8764 9.01486 27.103C8.68351 27.5583 8.56221 28.1483 8.71107 28.7083C8.98069 29.7226 10.0248 30.3282 11.039 30.0585C11.7039 29.8818 12.1939 29.3715 12.3756 28.7551L13.5157 30.046L14.6797 32.6173C14.7754 32.8292 15.0104 32.941 15.2352 32.8812L18.9134 31.9034C19.1677 31.8359 19.3184 31.5752 19.251 31.3214L18.5278 28.601L18.2578 25.7595C18.2553 25.7331 18.2508 25.7072 18.2441 25.6819C19.5117 25.345 20.3237 24.246 20.0541 23.2317C19.8468 22.452 19.0597 21.9445 18.1218 21.9107ZM17.9997 24.7624C17.8912 24.7912 17.7745 24.808 17.6217 24.8166C17.4791 24.8245 17.3471 24.8965 17.2632 25.0123C17.1793 25.1281 17.1515 25.2753 17.1883 25.4137L17.3145 25.8887L17.5845 28.7301C17.587 28.7561 17.5914 28.782 17.5981 28.8072L18.2092 31.1061L15.3802 31.8581L14.3535 29.5885C14.3338 29.5455 14.3083 29.5055 14.2767 29.4696L12.164 27.0776C12.0445 26.943 11.8593 26.8869 11.6851 26.9332L11.5931 26.9577C11.4428 26.9976 11.3212 27.1087 11.2684 27.2547C11.2148 27.4013 11.237 27.5643 11.3263 27.6912C11.4008 27.7974 11.4465 27.8876 11.4697 27.975C11.6045 28.4821 11.3017 29.0042 10.7946 29.139C10.2875 29.2738 9.76543 28.971 9.63062 28.4639C9.52942 28.0832 9.67994 27.6735 10.0055 27.4447C10.1406 27.3492 10.2168 27.1911 10.2067 27.0255C10.1963 26.8604 10.1008 26.7124 9.95475 26.6351C9.71585 26.5086 9.54713 26.298 9.4793 26.0428C9.34449 25.5357 9.64728 25.0136 10.1544 24.8788C10.2464 24.8544 10.3485 24.8479 10.4745 24.8587C10.6286 24.8719 10.7793 24.8092 10.8797 24.6904C10.9796 24.5718 11.0149 24.4123 10.9751 24.2624L10.8295 23.7148C10.6274 22.9544 11.0817 22.171 11.8422 21.9688C12.2169 21.8692 12.6085 21.9256 12.9438 22.1279C13.1099 22.2285 13.3211 22.2176 13.476 22.1001C13.7943 21.859 14.2206 21.8476 14.5542 22.0582C14.6943 22.1465 14.8705 22.1557 15.0184 22.0825C15.1669 22.0095 15.2667 21.8644 15.282 21.6998C15.319 21.304 15.5995 20.9701 15.9801 20.8689C16.4873 20.7341 17.0093 21.0368 17.1441 21.544C17.2041 21.7697 17.1759 22.0115 17.0644 22.2253C16.9786 22.3899 16.9965 22.5884 17.1088 22.7353C17.2217 22.882 17.4096 22.9502 17.5903 22.9095C18.315 22.7469 19.0083 23.0012 19.1346 23.4762C19.267 23.9746 18.7473 24.5637 17.9997 24.7624Z" fill="#A02169"/>
<path d="M30.2804 18.3691H29.7028C27.7838 18.3691 26.1926 19.8093 26.0014 21.7189L25.7633 24.1015L24.6473 24.7711L24.4693 24.5931C24.3662 24.4895 24.2262 24.4316 24.0796 24.4316H23.804C22.7403 24.4316 21.8751 25.2969 21.8751 26.3606C21.8751 27.3367 22.6037 28.1457 23.5456 28.2725C23.6723 29.2144 24.4814 29.943 25.4574 29.943C26.5211 29.943 27.3864 29.0777 27.3864 28.014V27.7384C27.3864 27.5924 27.3285 27.4518 27.2249 27.3488L27.0469 27.1708L27.7149 26.0575L30.6172 25.7935C32.5456 25.6182 34 24.0254 34 22.0893C34 20.038 32.3317 18.3691 30.2804 18.3691ZM25.9634 27.6458L26.2841 27.9666V28.014C26.2841 28.4698 25.9132 28.8407 25.4574 28.8407C25.0016 28.8407 24.6307 28.4698 24.6307 28.014V27.7384C24.6307 27.4342 24.3844 27.1873 24.0796 27.1873H23.804C23.3482 27.1873 22.9773 26.8164 22.9773 26.3606C22.9773 25.9048 23.3482 25.5339 23.804 25.5339H23.8514L24.1722 25.8547C24.3508 26.0338 24.628 26.0674 24.8457 25.9373L26.1987 25.1255L26.4456 25.3724L26.6925 25.6193L25.8807 26.9724C25.7506 27.1895 25.7848 27.4667 25.9634 27.6458ZM30.5174 24.6956L27.5936 24.9613L26.8584 24.226L27.0987 21.8281C27.2332 20.4844 28.3525 19.4714 29.7028 19.4714H30.2804C31.7233 19.4714 32.8978 20.6459 32.8978 22.0893C32.8978 23.4517 31.8748 24.5722 30.5174 24.6956Z" fill="#A02169"/>
<path d="M14.5806 25.6343C13.887 25.2378 12.9823 25.1105 12.2379 25.3084L12.4824 26.228C13.2851 26.0146 14.4993 26.408 14.6881 27.1184L15.177 28.9575L16.0966 28.7131L15.6077 26.874C15.4607 26.3209 15.2531 24.9992 16.4981 24.6682L16.2537 23.7487C15.2895 24.005 14.7147 24.6904 14.5806 25.6343Z" fill="#A02169"/>
</svg>
