<svg width="40" height="40" fill="none" xmlns="http://www.w3.org/2000/svg"><circle cx="20" cy="20" r="20" fill="#FFC824"/><path d="M11 11H9.5L9 12.5H7.5v2H9V16h2v-1.5h2v-2h-2V11zm4.5 9.5V26H24v-4.5l-.53-3.326L22.413 17h-3.706l-.53.391-1.553.783L15.5 20.5z" fill="#F0950D"/><path d="M25.5 19.5l-.5-2v-1l3.5 2.5-1.5 1.5-1.5-1z" fill="#E34626"/><path d="M27 18l-1.5-1.5 2-.5h1v2.5L27 18z" fill="#F0950D"/><path d="M17.5 10.5l-1 1.5.5.5h2l-1-1-.5-1zm6 0L24 12l-.5.5h-2l1-1 1-1zM19 8l-1 1.5c.299.283.824.231 2 0 1-.683 1.29-1.005 1.5-1.5-.53-.27-1.018-.304-2.5 0z" fill="#E34626"/><path d="M8.764 16.17c0 .246.199.44.44.44h1.763c.246 0 .44-.2.44-.44v-1.324h1.323c.247 0 .44-.2.44-.44v-1.763a.44.44 0 00-.44-.44h-1.324V10.88a.44.44 0 00-.44-.44H9.204a.44.44 0 00-.44.44v1.324H7.44a.44.44 0 00-.439.44v1.763c0 .246.2.44.44.44h1.324v1.324zm-.885-2.203v-.88h1.324c.246 0 .44-.198.44-.439v-1.324h.878v1.324c0 .247.2.44.44.44h1.324v.879h-1.318a.44.44 0 00-.44.44v1.323h-.879v-1.324a.44.44 0 00-.439-.44h-1.33zm15.152-5.455A3.089 3.089 0 0020.377 7a3.09 3.09 0 00-2.654 1.512l-1.547 2.678a1.327 1.327 0 001.148 1.986h6.112a1.327 1.327 0 001.148-1.986c-.006 0-1.547-2.667-1.553-2.678zm-2.654 3.779a2.207 2.207 0 01-2.162-1.781 5.677 5.677 0 003.797-1.899c.351.393.568.909.568 1.477 0 1.213-.99 2.203-2.203 2.203zm0-4.406c.328 0 .639.07.92.199a4.786 4.786 0 01-3.07 1.535 2.2 2.2 0 012.15-1.734zm-3.053 4.406c-.24 0-.44-.2-.44-.44 0-.076.018-.152.06-.216l.45-.78c.141.557.434 1.05.833 1.436h-.903zm6.106 0h-.897c.399-.387.692-.885.832-1.436l.451.78c.041.07.059.14.059.217 0 .24-.2.439-.445.439zm.957 21.287l-1.46-.486v-6.703h1.325c.246 0 .44-.2.44-.44v-3.838a3.96 3.96 0 00-.88-2.49v-3.95a1.62 1.62 0 00-1.617-1.616H19.26a1.62 1.62 0 00-1.617 1.617v1.248A3.967 3.967 0 0015 20.658v5.285c0 .246.2.44.44.44h3.082v6.709l-1.46.486a.437.437 0 10.275.832l1.765-.586a.434.434 0 00.298-.416v-7.02h2.643v7.02a.44.44 0 00.299.416l1.764.586a.44.44 0 00.557-.275.434.434 0 00-.276-.557zm-5.133-18.644h2.935c.405 0 .733.328.733.732v1.137h-4.406v-1.137a.742.742 0 01.738-.732zm-3.375 5.73c0-1.389.926-2.607 2.262-2.97h4.787v2.091c0 .106.04.211.111.293a3.08 3.08 0 01.773 2.04v3.398H15.88v-4.852zm11.059-8.373c-1.213 0-2.204.99-2.204 2.203v4.113c0 1.213.99 2.204 2.203 2.204 1.213 0 2.204-.99 2.204-2.204v-4.113c0-1.219-.99-2.203-2.203-2.203zm-.997 4.166a2.205 2.205 0 002.32-.2v1.882a3.118 3.118 0 01-2.32-1.682zm.997-3.287c.726 0 1.324.592 1.324 1.324 0 .733-.592 1.324-1.325 1.324a1.323 1.323 0 01-1.324-1.324c0-.732.598-1.324 1.325-1.324zm0 6.756a1.327 1.327 0 01-1.325-1.324v-1.038a3.955 3.955 0 002.578 1.442c-.17.539-.668.92-1.253.92z" fill="#A02169"/></svg>