<svg width="40" height="40" fill="none" xmlns="http://www.w3.org/2000/svg"><circle cx="20" cy="20" r="20" fill="#FFC824"/><path d="M17.583 24.77l-3.354-3.353 1.917-1.917h6.708l-5.27 5.27z" fill="#E34626"/><path d="M24.292 10.875c-.668-.213-.903-.148-.959.48l3.834 4.312c1.037.037 1.184-.212.958-.959l-3.833-3.833zm3.833-2.396c-.667-.214-.903.331-.958.958l2.395 2.875c1.038.038 1.185-.69.959-1.437l-2.396-2.396zM11.833 22.375l1.687-1.63 4.646 4.806-1.686 1.63zm-.02 2.205l1.096-1.06 2.577 2.666-1.095 1.059z" fill="#F0950D"/><path d="M28.186 8h-.48a1.159 1.159 0 00-.819 1.977l.25.249-1.33 1.33-.992-.991a1.159 1.159 0 00-1.977.819v.48l.218.217-8.75 8.75-.741-.743-2.38 2.38 1.113 1.113-1.113 1.113.753.752-3.34 3.644A2.274 2.274 0 008 30.629V31h.371c.572 0 1.119-.213 1.54-.599l3.643-3.339.752.753 1.113-1.113 1.113 1.113 2.38-2.38-.742-.741 8.75-8.75.217.217h.48a1.159 1.159 0 00.818-1.976l-.991-.992 1.33-1.33.25.25A1.159 1.159 0 0031 11.294v-.48L28.185 8zM9.409 29.855c-.175.16-.381.276-.605.341.066-.223.181-.43.342-.605l3.317-3.62.566.566-3.62 3.318zm4.897-3.09l-2.072-2.072.589-.588 2.072 2.072-.588.589zm2.226 0l-4.298-4.297 1.33-1.33 4.299 4.297-1.33 1.33zm-1.701-5.41l1.484-1.484h5.628l-4.298 4.298-2.814-2.814zm7.854-2.226h-5.628l2.072-2.072.85.85.525-.524-.85-.85.588-.59 1.221 1.223.525-.525-1.221-1.222.588-.588.85.85.525-.524-.85-.85.588-.589 1.221 1.222.525-.525-1.222-1.221.589-.589 2.814 2.814-3.71 3.71zm5.347-4.126c0 .23-.186.416-.416.416h-.172l-3.863-3.863v-.172a.416.416 0 01.71-.295l3.62 3.62a.413.413 0 01.121.295zM26.92 12.67l-.588-.588 1.33-1.33.589.588-1.33 1.33zm3.34-1.375a.416.416 0 01-.711.294l-2.136-2.136a.416.416 0 01.294-.71h.173l2.38 2.38v.172z" fill="#A02169"/></svg>