<svg width="40" height="40" fill="none" xmlns="http://www.w3.org/2000/svg"><circle cx="20" cy="20" r="20" fill="#FFC824"/><path d="M11.5 28l4.5-8h7.5l5 8.5c-.024 1.11-.38 1.53-1.5 2H12.5c-.725-.481-.968-.995-1-2.5z" fill="#E34626"/><circle cx="20" cy="20" r="1" fill="#F0950D"/><ellipse cx="16.75" cy="24" rx="1.25" ry="1" fill="#F0950D"/><ellipse cx="21.75" cy="27.5" rx="1.25" ry="1" fill="#F0950D"/><path d="M17.5 8.5h5v1h-5v-1z" fill="#F0950D"/><path d="M15.266 24.022c0 .837.68 1.517 1.517 1.517a1.518 1.518 0 10-1.517-1.517zm2.358 0a.842.842 0 01-1.683 0 .843.843 0 011.683 0zm2.731 3.496a1.574 1.574 0 101.573-1.573c-.867 0-1.573.705-1.573 1.573zm2.471 0a.899.899 0 01-1.796 0 .899.899 0 011.796 0z" fill="#A02169"/><path d="M28.691 27.503a.341.341 0 00-.003-.006l-.882-1.49a.338.338 0 00-.581.343l.88 1.487a1.68 1.68 0 01-.015 1.686 1.68 1.68 0 01-1.465.84h-13.25a1.68 1.68 0 01-1.465-.84 1.681 1.681 0 01-.015-1.686l4.389-7.418h2.721a1.285 1.285 0 002.35 0h2.361l3.509 5.931c.063.107.555.465.67.465.058 0-.348-.433-.294-.465.16-.095.3-.183.205-.344l-4.914-8.304a5.422 5.422 0 01-.755-2.76v-4.839A1.059 1.059 0 0021.98 8h-.53a.337.337 0 100 .675h.53a.383.383 0 010 .765h-3.96a.383.383 0 010-.765h3.442c.187 0 .11-.151.11-.338 0-.186-.018-.337-.205-.337H18.02a1.059 1.059 0 00-.157 2.103v4.677c0 .186.15.102.337.102.187 0 .338.267.338.08v-4.847h2.924v4.828c0 1.09.294 2.164.85 3.103l1.005 1.698h-1.864a1.285 1.285 0 00-1.273-1.124c-.654 0-1.195.492-1.273 1.124h-2.224l1.006-1.698c.555-.94.849-2.012.849-3.103v-.277a.337.337 0 10-.675 0v.277a5.42 5.42 0 01-.755 2.759l-5.796 9.794a2.35 2.35 0 00.015 2.367 2.349 2.349 0 002.047 1.176h13.251c.852 0 1.618-.44 2.047-1.175a2.35 2.35 0 00.02-2.361zm-8.511-8.208a.609.609 0 11-.002 1.218.609.609 0 01.002-1.218z" fill="#A02169"/></svg>