<svg width="40" height="40" fill="none" xmlns="http://www.w3.org/2000/svg"><circle cx="20" cy="20" r="20" fill="#FFC824"/><ellipse cx="13.28" cy="27.409" rx="1.52" ry="1.727" fill="#F0950D"/><ellipse cx="27.72" cy="27.409" rx="1.52" ry="1.727" fill="#F0950D"/><path d="M11.38 14.455h18.24L30 15.75l-.38 1.296H11.38L11 15.75l.38-1.295z" fill="#E34626"/><path d="M11.76 11h4.18v1.727h-4.18V11z" fill="#F0950D"/><path d="M12.267 17.045c4.43 2.307 8.87 4.615 13.3 6.91m3.166-6.91c-4.43 2.307-8.87 4.615-13.3 6.91m-1.9 1.71v-1.677c4.648-.017 9.295-.017 13.934-.033v1.727m-13.959 3.454c.84 0 1.52-.773 1.52-1.727 0-.954-.68-1.727-1.52-1.727s-1.52.773-1.52 1.727c0 .954.68 1.727 1.52 1.727zm13.984 0c.84 0 1.52-.773 1.52-1.727 0-.954-.68-1.727-1.52-1.727s-1.52.773-1.52 1.727c0 .954.68 1.727 1.52 1.727z" stroke="#A02169" stroke-miterlimit="10"/><path d="M29.038 17.046H11.961c-.533 0-.961-.59-.961-1.296 0-.718.438-1.295.961-1.295h17.077c.534 0 .962.59.962 1.295.01.718-.428 1.296-.962 1.296zM24.3 14.454h-6.967v-1.322c0-.216.12-.405.278-.405h6.411c.148 0 .278.175.278.405v1.322zm-8.955-1.727h-2.99c-.394 0-.722-.381-.722-.863 0-.471.319-.864.722-.864h2.99c.394 0 .722.381.722.864 0 .482-.328.863-.722.863z" stroke="#A02169" stroke-miterlimit="10"/></svg>