<svg width="40" height="40" fill="none" xmlns="http://www.w3.org/2000/svg"><circle cx="20" cy="20" r="20" fill="#FFC824"/><path d="M12.913 30.405l.391 2.163H18.5L18 27.5 16.5 25l-3.587-3.243h-1.174l-1.174-4.325L9.5 16.5l-1 .5 2.457 10.81 1.956 2.595zM27 29.5l-.783 2.068v.932H21V29l1-2.5 1.174-1.851L26.5 21.5h1l1.76-5.067.74.067 1.5 1-2.674 9.311L27 29.501z" fill="#F6AF1B"/><path d="M17.771 18.906l-.562-3.718.437-2.626 5.688 3.938v1.313s-1.75 2.625-2.625 2.625-2.938-1.532-2.938-1.532z" fill="#E34626"/><path d="M20.271 14.75l-2.625-2.45 3.063.262 2.187-1.312.438 4.813-3.063-1.313z" fill="#F0950D"/><rect x="17.271" y="6.5" width="6" height="13.875" rx="3" stroke="#A02169"/><circle cx="20.271" cy="9.5" r="3" stroke="#A02169"/><path d="M17.209 11.688c1.795 2.706 3.096 3.857 6.125 4.374" stroke="#A02169"/><path d="M18.622 27.868a8.528 8.528 0 00-2.01-3.414l-2.87-2.973a1.612 1.612 0 00-1.705-.396l-.965-3.861a1.618 1.618 0 00-3.138.787l2.132 8.55a5.255 5.255 0 001.32 2.381l.51.531a3.901 3.901 0 01.997 2.78v.405a.405.405 0 00.405.404h5.26a.405.405 0 00.404-.404v-2.015a8.841 8.841 0 00-.323-2.73l-.017-.045zm-.469 4.385h-4.45a4.69 4.69 0 00-1.224-3.34l-.51-.533a4.447 4.447 0 01-1.118-2.014L8.72 17.813a.798.798 0 01.224-.779.81.81 0 011.346.386l1.038 4.16a1.627 1.627 0 00.093 2.158l3.086 3.193.582-.562-3.085-3.193a.81.81 0 01-.046-1.086c.083-.1.19-.176.31-.223a.714.714 0 01.324-.068c.216.003.42.092.57.247l2.869 2.97a7.735 7.735 0 011.823 3.103l.016.045c.222.804.318 1.637.284 2.47v1.62zm13.011-15.8a1.623 1.623 0 00-2.696.773l-.962 3.86a1.6 1.6 0 00-1.706.398l-2.867 2.97a8.509 8.509 0 00-2.006 3.4l-.026.075a8.815 8.815 0 00-.32 2.706v2.023a.405.405 0 00.404.404h5.26a.405.405 0 00.405-.404v-.405a3.902 3.902 0 01.998-2.78l.508-.53a5.26 5.26 0 001.321-2.382l2.132-8.55a1.6 1.6 0 00-.445-1.558zm-.34 1.36l-2.132 8.553a4.453 4.453 0 01-1.119 2.016l-.509.53a4.69 4.69 0 00-1.223 3.341H21.39v-1.626a8.047 8.047 0 01.28-2.448l.024-.073a7.716 7.716 0 011.82-3.09l2.866-2.969a.817.817 0 01.572-.248.81.81 0 01.36.084.686.686 0 01.274.205.81.81 0 01-.043 1.088l-3.087 3.194.582.562 3.087-3.193a1.627 1.627 0 00.093-2.158l1.037-4.159a.811.811 0 011.48-.22.805.805 0 01.09.612h-.001z" fill="#A02169"/></svg>