<svg width="40" height="40" fill="none" xmlns="http://www.w3.org/2000/svg"><circle cx="20" cy="20" r="20" fill="#FFC824"/><path d="M28.317 19.506c0 4.694-3.806 9-8.5 9-4.695 0-8.817-4.306-8.817-9s4.122-8.5 8.817-8.5a8.5 8.5 0 018.5 8.5z" fill="#F0950D"/><path d="M32.313 19.656a12.57 12.57 0 00-2.318-7.301l-.765.54a11.644 11.644 0 012.145 6.761c0 6.462-5.257 11.719-11.719 11.719-6.461 0-11.718-5.257-11.718-11.719 0-6.461 5.256-11.718 11.718-11.718 2.834 0 5.498.99 7.617 2.812h-2.46v.938h3.75c.259 0 .468-.21.468-.47v-3.75h-.937v2.759A12.532 12.532 0 0019.656 7C12.678 7 7 12.678 7 19.656c0 6.979 5.678 12.657 12.656 12.657 6.979 0 12.657-5.678 12.657-12.657z" fill="#A02169"/><path d="M19.656 10.281c-5.17 0-9.375 4.206-9.375 9.375 0 5.17 4.206 9.375 9.375 9.375 5.17 0 9.375-4.205 9.375-9.375s-4.205-9.375-9.375-9.375zm8.414 9.844a8.391 8.391 0 01-2.135 5.147l-1.26-1.26-.663.663 1.26 1.26a8.391 8.391 0 01-5.147 2.135v-1.851h-.938v1.85a8.391 8.391 0 01-5.147-2.134l1.26-1.26-.663-.663-1.26 1.26a8.391 8.391 0 01-2.134-5.147h1.85v-.938h-1.85a8.391 8.391 0 012.134-5.147l1.26 1.26.663-.663-1.26-1.26a8.391 8.391 0 015.148-2.134v1.85h.937v-1.85a8.391 8.391 0 015.147 2.134l-1.26 1.26.663.663 1.26-1.26a8.391 8.391 0 012.135 5.148h-1.851v.937h1.85z" fill="#E34626"/><path d="M18.719 16.844h-3.282a.468.468 0 00-.468.468v1.407h.937v-.938h2.344v1.098l-2.997 1.284a.468.468 0 00-.284.43V22c0 .26.21.469.469.469h3.75v-.938h-3.282v-.628l2.997-1.285a.468.468 0 00.285-.43v-1.875a.47.47 0 00-.47-.47zm4.687 2.812h-2.343v-2.812h-.938v3.281c0 .26.21.469.469.469h2.812v1.875h.938v-5.625h-.938v2.812z" fill="#A02169"/></svg>