<svg width="40" height="40" fill="none" xmlns="http://www.w3.org/2000/svg"><circle cx="20" cy="20" r="20" fill="#FFC824"/><path fill="#E34626" d="M15.9 12.45h15.3v11.7H15.9z"/><ellipse cx="11.4" cy="26.4" rx="1.8" ry="2.25" fill="#F0950D"/><circle cx="27.15" cy="26.4" r="2.25" fill="#F0950D"/><path d="M24.45 16.05h-1.8v1.35H21.3v1.8h1.35V21h1.8v-1.8h1.8v-1.8h-1.8v-1.35z" fill="#FFC824"/><path d="M32.473 23.68h-.76V12.527a.527.527 0 00-.527-.527H25.89a.527.527 0 000 1.055h4.767V23.68h-14.21V13.055h9.71c.292 0 .219-.236.219-.528 0-.29.164-.527-.127-.527H15.922a.527.527 0 00-.528.527v1.646h-1.24v-.513c0-.88-.716-1.596-1.597-1.596-.88 0-1.596.716-1.596 1.596v.513h-.608c-.583 0-1.098.372-1.28.926l-1.716 5.21-.854.685c-.32.258-.503.64-.503 1.051v3.711a1.35 1.35 0 001.348 1.348h1.408a2.529 2.529 0 002.469 1.997 2.528 2.528 0 002.468-1.997h10.82a2.529 2.529 0 002.468 1.997 2.528 2.528 0 002.469-1.997h3.023a.527.527 0 00.527-.527v-2.37a.527.527 0 00-.527-.527zM12.016 13.66a.542.542 0 011.083 0v.513h-1.084v-.513zM9.46 17.296h1.25c.078 0 .141.064.141.143v1.242c0 .78-.634 1.414-1.414 1.414h-.9l.923-2.799zm-2.405 8.46v-3.71c0-.09.04-.174.11-.23l.83-.666h1.442a2.472 2.472 0 002.47-2.47v-1.24a1.2 1.2 0 00-1.198-1.198h-.902l.268-.812a.293.293 0 01.278-.201h5.041V26.05h-1.7a2.552 2.552 0 00-2.59-1.994 2.549 2.549 0 00-2.086 1.296c-.121.218-.21.454-.263.698H7.348a.294.294 0 01-.293-.293zm4.17 2.29c-.81 0-1.47-.659-1.47-1.47 0-.8.67-1.469 1.47-1.469.81 0 1.47.66 1.47 1.47 0 .81-.66 1.47-1.47 1.47zm5.224-3.31h8.807c-.373.35-.637.813-.744 1.313H16.45v-1.314zm10.532 3.31a1.471 1.471 0 01-1.318-2.117 1.471 1.471 0 012.637 0 1.471 1.471 0 01-1.319 2.118zm4.964-1.997H29.45c-.106-.5-.37-.964-.743-1.314h3.238v1.314z" fill="#A02169"/><path d="M20.32 17.343v2.222c0 .291.237.527.528.527h.99v1.043c0 .291.236.528.528.528h2.327a.527.527 0 00.528-.528v-1.043h.99a.527.527 0 00.527-.527v-2.222a.527.527 0 00-.527-.528h-.99v-1.043a.527.527 0 00-.528-.527h-2.327a.527.527 0 00-.528.528v1.042h-.99a.527.527 0 00-.527.528zm1.055.527h.99a.527.527 0 00.528-.527V16.3h1.273v1.043c0 .291.236.527.527.527h.99v1.168h-.99a.527.527 0 00-.527.527v1.043h-1.273v-1.043a.527.527 0 00-.527-.527h-.99V17.87z" fill="#A02169"/></svg>