<svg width="40" height="40" fill="none" xmlns="http://www.w3.org/2000/svg"><path d="M40 20c0 11.046-8.954 20-20 20S0 31.046 0 20 8.954 0 20 0s20 8.954 20 20z" fill="#FFC824"/><circle cx="16.5" cy="12.5" r="4.5" fill="#F0950D"/><path d="M27 21c-.5 1-.5 3.5-.5 3.5l1 1s.5 0 2.5-.5 3-1.5 3.5-2.5-1.5-3.5-3-3.5-3 1-3.5 2z" fill="#E34626"/><path d="M24.318 11.41l-.001-.001a4.37 4.37 0 00-2.642-.885 4.1 4.1 0 00-.507.034 4.987 4.987 0 00-2.605-2.429 4.415 4.415 0 011.652-1.097L19.828 6a5.512 5.512 0 00-2.083 1.389c-.132.141-.25.285-.359.43-.22-.03-.443-.05-.671-.05a4.966 4.966 0 00-4.96 4.96 4.966 4.966 0 004.96 4.96c.476 0 .935-.071 1.37-.197a4.414 4.414 0 002.633 1.743l.002.001a4.412 4.412 0 003.824-.957v-.001a4.405 4.405 0 001.54-3.345c0-1.396-.643-2.68-1.766-3.524zm-7.603 5.177a3.862 3.862 0 01-3.858-3.858 3.863 3.863 0 013.858-3.858l.044.002a5.605 5.605 0 00-.402 1.292l1.084.198c.065-.36.197-.823.456-1.305a3.871 3.871 0 012.53 2.635 4.093 4.093 0 01.078.33c.008.042.013.085.02.128.01.071.023.143.03.215a3.876 3.876 0 01-.085 1.237 3.863 3.863 0 01-3.755 2.984zm3.715 1.408c-.5-.204-.942-.53-1.29-.944a4.992 4.992 0 001.935-1.959l-.645 2.903zm4.506-3.613h-2.159l1.294-1.724a3.26 3.26 0 01.865 1.724zm-1.747-2.386l-.482.642-.963 1.284-.157-.282a4.852 4.852 0 00.057-1.45c-.002-.027-.008-.052-.011-.078a4.93 4.93 0 00-.084-.483 3.202 3.202 0 011.64.367zm-1.683 6.24l.468-2.107 1.403 1.637a3.294 3.294 0 01-1.871.47zm2.708-1.188l-1.34-1.563h2.062a3.299 3.299 0 01-.722 1.563zm-6.092 4.862a1.86 1.86 0 00-.058-.61 1.905 1.905 0 00-2.328-1.35 1.904 1.904 0 00-1.244 1.062 1.901 1.901 0 00-1.325.161 2.351 2.351 0 00-1.57-.124 2.381 2.381 0 00-1.687 2.91 1.905 1.905 0 00-.895 3.144 1.903 1.903 0 00-.304 1.605 1.903 1.903 0 003.665.047l1.14 1.291 1.164 2.571c.095.212.33.324.555.264l3.678-.978a.476.476 0 00.338-.582l-.723-2.72-.27-2.841a.48.48 0 00-.014-.078c1.268-.337 2.08-1.436 1.81-2.45-.207-.78-.994-1.287-1.932-1.321zM18 24.763a1.842 1.842 0 01-.378.055.476.476 0 00-.434.597l.127.475.27 2.841a.479.479 0 00.013.077l.611 2.3-2.829.751-1.027-2.27a.485.485 0 00-.076-.118l-2.113-2.392a.477.477 0 00-.479-.145l-.092.025a.475.475 0 00-.267.733c.075.106.12.197.144.284a.952.952 0 01-1.84.489.953.953 0 01.375-1.02.477.477 0 00-.05-.809.939.939 0 01-.476-.592.952.952 0 01.675-1.164.922.922 0 01.32-.02.477.477 0 00.501-.597l-.146-.547a1.43 1.43 0 011.013-1.746c.375-.1.766-.043 1.102.159.166.1.377.09.532-.028a.943.943 0 011.078-.042.476.476 0 00.728-.358.952.952 0 01.698-.831.945.945 0 011.084 1.356.477.477 0 00.526.684c.725-.162 1.418.092 1.545.567.132.499-.388 1.088-1.135 1.286zm12.28-6.393h-.577A3.709 3.709 0 0026 21.718l-.238 2.383-1.116.67-.178-.179a.549.549 0 00-.39-.161h-.275a1.931 1.931 0 00-1.929 1.929c0 .976.729 1.785 1.67 1.912.127.941.936 1.67 1.912 1.67a1.931 1.931 0 001.93-1.929v-.276a.55.55 0 00-.162-.39l-.178-.177.668-1.113 2.902-.264A3.702 3.702 0 0034 22.089a3.724 3.724 0 00-3.72-3.72zm-4.317 9.276l.321.32v.048a.828.828 0 01-1.653 0v-.276a.55.55 0 00-.551-.55h-.276a.828.828 0 010-1.654h.047l.321.32a.55.55 0 00.674.083l1.353-.812.247.247.246.247-.811 1.353a.552.552 0 00.082.674zm4.554-2.95l-2.923.265-.736-.735.24-2.398a2.609 2.609 0 012.605-2.357h.577a2.62 2.62 0 012.618 2.618 2.604 2.604 0 01-2.38 2.607z" fill="#A02169"/><path d="M14.58 25.634c-.693-.396-1.598-.524-2.342-.326l.244.92c.803-.213 2.017.18 2.206.89l.489 1.84.92-.245-.49-1.839c-.146-.553-.354-1.875.891-2.206l-.244-.92c-.965.257-1.54.942-1.673 1.886z" fill="#A02169"/></svg>