<svg width="14" height="14" fill="none" xmlns="http://www.w3.org/2000/svg"><path d="M13.686 11.064l-2.162-2.162c-.43-.43-1.144-.416-1.59.03L8.846 10.02 8.63 9.9c-.687-.381-1.629-.903-2.62-1.895-.993-.993-1.516-1.936-1.898-2.624l-.118-.21.732-.73.359-.36c.446-.447.459-1.16.029-1.59L2.952.33c-.43-.43-1.143-.417-1.59.03L.753.971.77.99c-.205.26-.375.561-.502.886-.118.308-.19.603-.224.898-.285 2.367.796 4.53 3.731 7.465 4.058 4.057 7.327 3.75 7.468 3.736a3.622 3.622 0 001.784-.727l.013.012.617-.604c.446-.447.459-1.16.03-1.59z" fill="#000"/></svg>