<svg width="250" height="250" fill="none" xmlns="http://www.w3.org/2000/svg"><path fill="#fff" d="M0 0h250v250H0z"/><path fill="#96216B" d="M215 215h35v35h-35z"/><path fill="#E45E26" d="M180 180h35v35h-35z"/><path fill="#A02169" d="M215 180h35v35h-35z"/><path fill="#E45E26" d="M215 145h35v35h-35z"/><path fill="#E98C00" d="M215 110h35v35h-35z"/><path fill="#E45E26" d="M145 215h35v35h-35z"/><path fill="#E98C00" d="M110 215h35v35h-35z"/><path fill="#FFC824" d="M75 215h35v35H75z"/><path fill="#E98C00" d="M145 180h35v35h-35z"/><path fill="#A02169" d="M180 215h35v35h-35z"/><path fill="#A02169" d="M180 215h35v35h-35z"/></svg>