<svg width="50" height="50" viewBox="0 0 50 50" fill="none" xmlns="http://www.w3.org/2000/svg">
<circle cx="25" cy="25" r="25" fill="#FFC824"/>
<path d="M16.1413 38.0068L16.6304 40.7095H23.125L22.5 34.375L20.625 31.25L16.1413 27.1959H14.6739L13.2065 21.7905L11.875 20.625L10.625 21.25L13.6957 34.7635L16.1413 38.0068Z" fill="#F6AF1B"/>
<path d="M33.75 36.8751L32.7717 39.4594V40.6251H26.25V36.2501L27.5 33.1251L28.9674 30.8108L33.125 26.8751H34.375L36.5761 20.5405L37.5 20.6251L39.375 21.8751L36.0326 33.5135L33.75 36.8751Z" fill="#F6AF1B"/>
<path d="M22.2142 23.6328L21.5111 18.9844L22.058 15.7031L29.1674 20.625V22.2656C29.1674 22.2656 26.9799 25.5469 25.8861 25.5469C24.7924 25.5469 22.2142 23.6328 22.2142 23.6328Z" fill="#E34626"/>
<path d="M25.3392 18.4375L22.058 15.375L25.8861 15.7031L28.6205 14.0625L29.1674 20.0781L25.3392 18.4375Z" fill="#F0950D"/>
<rect x="21.4642" y="8" width="7.75" height="17.5938" rx="3.875" stroke="#A02169"/>
<circle cx="25.3392" cy="11.875" r="3.875" stroke="#A02169"/>
<path d="M21.5111 14.6094C23.7547 17.9925 25.3812 19.4319 29.1674 20.0781" stroke="#A02169"/>
<path d="M23.2781 34.8353C22.7869 33.2351 21.9258 31.7731 20.7645 30.5677L17.1787 26.8519C16.9089 26.5726 16.5642 26.3773 16.186 26.2892C15.8078 26.2012 15.4123 26.2243 15.0469 26.3558L13.8407 21.5298C13.7103 21.0112 13.3799 20.5653 12.9216 20.2896C12.4634 20.0139 11.9146 19.9308 11.3954 20.0586C11.1366 20.122 10.8929 20.2359 10.6784 20.3938C10.4639 20.5517 10.2827 20.7505 10.1453 20.9787C10.0079 21.2069 9.91696 21.4601 9.87779 21.7236C9.83862 21.9871 9.85196 22.2557 9.91703 22.514L12.5829 33.2017C12.8616 34.3214 13.4305 35.348 14.2321 36.178L14.8699 36.8416C15.7248 37.7918 16.1724 39.0397 16.1166 40.3166V40.8224C16.1166 40.9565 16.1699 41.0852 16.2647 41.18C16.3596 41.2749 16.4882 41.3281 16.6223 41.3281H23.1972C23.3313 41.3281 23.4599 41.2749 23.5548 41.18C23.6496 41.0852 23.7029 40.9565 23.7029 40.8224V38.3037C23.7467 37.1525 23.6102 36.0015 23.2983 34.8924L23.2781 34.8353ZM22.6914 40.3166H17.1281C17.1869 38.7777 16.6377 37.2774 15.5992 36.1401L14.9609 35.4755C14.2821 34.7733 13.8003 33.9046 13.564 32.9569L10.8987 22.2662C10.8541 22.0937 10.8566 21.9124 10.9059 21.7412C10.9552 21.57 11.0494 21.4151 11.1789 21.2926C11.3066 21.1683 11.4657 21.0809 11.6391 21.0398C11.8987 20.9761 12.1729 21.0178 12.4019 21.1557C12.6308 21.2935 12.7959 21.5164 12.861 21.7756L14.1583 26.9748C13.8443 27.3607 13.6827 27.8484 13.7042 28.3455C13.7256 28.8426 13.9286 29.3145 14.2746 29.672L18.1325 33.6639L18.8598 32.9609L15.0039 28.9695C14.8277 28.7907 14.7243 28.5528 14.7137 28.302C14.7032 28.0513 14.7862 27.8055 14.9468 27.6126C15.0501 27.4881 15.1836 27.3923 15.3347 27.3344C15.4609 27.2744 15.5995 27.2449 15.7393 27.2484C16.0084 27.2529 16.2649 27.3638 16.4524 27.5569L20.0372 31.2702C21.0914 32.3659 21.8724 33.6947 22.3166 35.1488L22.3364 35.2045C22.6137 36.2096 22.7335 37.2517 22.6914 38.2936V40.3166Z" fill="#A02169"/>
<path d="M38.955 20.5668C38.6995 20.3191 38.3824 20.1445 38.0365 20.061C37.5165 19.9331 36.9669 20.0161 36.5078 20.2918C36.0486 20.5675 35.7171 21.0136 35.5856 21.5328L34.3824 26.3577C34.1556 26.2751 33.9157 26.2344 33.6744 26.2373C33.1366 26.2461 32.6244 26.468 32.2502 26.8543L28.6669 30.5671C27.509 31.7677 26.6497 33.2239 26.1583 34.8179L26.1265 34.911C25.8185 36.0109 25.6833 37.1521 25.7259 38.2935V40.8223C25.7259 40.9564 25.7792 41.085 25.8741 41.1799C25.9689 41.2747 26.0975 41.328 26.2317 41.328H32.8065C32.9406 41.328 33.0693 41.2747 33.1641 41.1799C33.259 41.085 33.3123 40.9564 33.3123 40.8223V40.3165C33.2565 39.0391 33.7045 37.7908 34.56 36.8405L35.1952 36.1794C35.9976 35.349 36.5671 34.322 36.8465 33.2015L39.5113 22.5139C39.6004 22.1692 39.5958 21.807 39.498 21.4647C39.4002 21.1224 39.2127 20.8124 38.955 20.5668V20.5668ZM38.5296 22.2671L35.8653 32.9568C35.6284 33.9051 35.1459 34.7743 34.4664 35.4769L33.8307 36.139C32.7916 37.2764 32.242 38.7771 32.3007 40.3165H26.7374V38.2834C26.6959 37.2514 26.8136 36.2192 27.0864 35.2231L27.1178 35.132C27.5625 33.6837 28.3422 32.3604 29.3937 31.2696L32.9754 27.5588C33.1631 27.3651 33.4198 27.2534 33.6896 27.2483C33.8462 27.2478 34.0008 27.2836 34.1412 27.353C34.2745 27.409 34.3919 27.4971 34.4831 27.6094C34.645 27.8023 34.7291 28.0486 34.719 28.3002C34.7089 28.5518 34.6053 28.7906 34.4285 28.9699L30.5706 32.9618L31.2978 33.6648L35.1557 29.6734C35.5017 29.3158 35.7046 28.8438 35.7261 28.3466C35.7475 27.8495 35.586 27.3618 35.2721 26.9757L36.5688 21.7781C36.601 21.6491 36.6583 21.5278 36.7373 21.421C36.8164 21.3142 36.9158 21.224 37.0297 21.1556C37.1437 21.0872 37.27 21.042 37.4014 21.0224C37.5329 21.0029 37.6669 21.0094 37.7958 21.0417C37.9248 21.0734 38.0462 21.1304 38.1531 21.2093C38.26 21.2882 38.3502 21.3874 38.4186 21.5013C38.4869 21.6152 38.532 21.7415 38.5514 21.873C38.5707 22.0044 38.5638 22.1384 38.5312 22.2671H38.5296Z" fill="#A02169"/>
</svg>
