<svg width="50" height="50" viewBox="0 0 50 50" fill="none" xmlns="http://www.w3.org/2000/svg">
<path d="M50 25C50 38.8071 38.8071 50 25 50C11.1929 50 -5.5073e-06 38.8071 -5.5073e-06 25C-5.5073e-06 11.1929 11.1929 0 25 0C38.8071 0 50 11.1929 50 25Z" fill="#FFC824"/>
<circle cx="37.8125" cy="27.1875" r="0.9375" fill="#FFC824"/>
<ellipse cx="16.875" cy="12.5" rx="0.625" ry="1.25" fill="#E34626"/>
<ellipse cx="37.8125" cy="26.875" rx="2.8125" ry="3.125" fill="#E34626"/>
<path d="M13.75 21.25C13.75 21.25 13.75 24.375 15.625 25.625C17.5 26.875 17.5 27.5 21.25 26.875C25 26.25 25.625 21.875 25.625 21.25" stroke="#F0950D" stroke-width="2"/>
<circle cx="37.8125" cy="27.1875" r="0.9375" fill="#FFC824"/>
<path d="M37.8955 25.6252C37.1016 25.6252 36.458 26.2688 36.458 27.0627C36.458 27.8566 37.1016 28.5002 37.8955 28.5002C38.6894 28.5002 39.333 27.8566 39.333 27.0627C39.333 26.2688 38.6894 25.6252 37.8955 25.6252ZM37.8955 27.5419C37.6309 27.5419 37.4163 27.3273 37.4163 27.0627C37.4163 26.7981 37.6309 26.5836 37.8955 26.5836C38.1601 26.5836 38.3746 26.7981 38.3746 27.0627C38.3746 27.3273 38.1601 27.5419 37.8955 27.5419Z" fill="#A02169"/>
<circle cx="22.5" cy="12.5" r="1.25" fill="#E34626"/>
<path d="M41.2152 26.5875C41.0027 25.1156 39.8465 23.9593 38.3746 23.7469V22.8758C38.3746 20.4723 36.5476 18.5154 34.3017 18.5154C32.1206 18.5154 30.2945 20.4129 30.2289 22.7454H30.2567L30.2289 22.7502V32.193C30.2289 35.2117 27.972 37.6631 25.1977 37.6631C22.4234 37.6631 20.1665 35.2084 20.1665 32.193V31.3751C20.8613 31.3751 21.604 30.8715 21.604 29.4585V28.2534C24.6793 27.4671 26.8748 24.8264 26.8748 21.8326V20.8336H25.9165L25.8963 14.5973C25.8894 13.443 25.061 12.4574 23.9251 12.2519C23.68 11.5012 22.8728 11.0913 22.1221 11.3364C21.3715 11.5814 20.9615 12.3886 21.2066 13.1393C21.4517 13.89 22.2589 14.2999 23.0096 14.0548C23.4115 13.9236 23.7348 13.6212 23.8925 13.2289C24.5064 13.4035 24.9316 13.962 24.9366 14.6002L24.9581 20.8336H23.9998V21.8465C23.9616 23.5132 22.8442 24.9616 21.2418 25.4215C20.3844 25.6936 19.4638 25.6936 18.6064 25.4215C17.0058 24.9601 15.8909 23.5119 15.8541 21.8465V20.8336H14.4166V14.6045C14.4194 13.9569 14.8549 13.391 15.4804 13.2226C15.772 13.965 16.6102 14.3304 17.3526 14.0388C18.095 13.7471 18.4604 12.9088 18.1688 12.1665C17.8771 11.4242 17.0388 11.0588 16.2965 11.3504C15.8942 11.5084 15.5839 11.8383 15.4507 12.2495C14.3023 12.4457 13.4615 13.4395 13.4583 14.6045V20.8336H12.5V21.8302C12.5 24.8274 14.6969 27.469 17.7708 28.2534V29.4585C17.7708 30.8715 18.5134 31.3751 19.2082 31.3751V32.193C19.2082 35.7388 21.8949 38.6214 25.1977 38.6214C28.5006 38.6214 31.1872 35.7354 31.1872 32.193V22.7732C31.2351 20.9548 32.6333 19.4752 34.3017 19.4752C36.019 19.4752 37.4163 21.0008 37.4163 22.8772V23.7469C35.5828 24.0115 34.3111 25.7123 34.5757 27.5458C34.8403 29.3792 36.5412 30.651 38.3746 30.3864C40.208 30.1217 41.4798 28.4208 41.2152 26.5875ZM22.5623 13.1671C22.2977 13.1671 22.0832 12.9525 22.0832 12.6879C22.0832 12.4233 22.2977 12.2087 22.5623 12.2087C22.827 12.2087 23.0415 12.4233 23.0415 12.6879C23.0415 12.9525 22.827 13.1671 22.5623 13.1671ZM16.8124 12.2087C17.077 12.2087 17.2916 12.4233 17.2916 12.6879C17.2916 12.9525 17.077 13.1671 16.8124 13.1671C16.5478 13.1671 16.3333 12.9525 16.3333 12.6879C16.3333 12.4233 16.5478 12.2087 16.8124 12.2087ZM13.4583 21.8302V21.7919H14.8958V21.8465C14.9317 23.9291 16.3173 25.7467 18.316 26.3329C19.3634 26.6645 20.4876 26.6645 21.535 26.3329C23.5347 25.7474 24.9215 23.9299 24.9581 21.8465V21.7919H25.9165V21.8302C25.9165 24.4958 23.8618 26.8413 21.029 27.4086C20.3638 27.5418 19.6825 27.5752 19.0075 27.5078C18.7853 27.4862 18.5644 27.4528 18.3457 27.4077C15.513 26.8413 13.4583 24.4958 13.4583 21.8302ZM19.2082 30.4168C18.777 30.4168 18.7291 29.746 18.7291 29.4585V28.4417C18.7674 28.4465 18.8067 28.4484 18.8455 28.4522C18.8934 28.4575 18.9413 28.4613 18.9893 28.4656C19.2159 28.4858 19.4445 28.4992 19.6749 28.4997H19.6989C19.9289 28.4997 20.157 28.4858 20.3822 28.4656C20.4301 28.4613 20.4809 28.4575 20.5302 28.4522C20.5681 28.4479 20.6074 28.4465 20.6452 28.4417V29.4585C20.6452 29.746 20.5973 30.4168 20.1661 30.4168H19.2082ZM37.8954 29.4585C36.5723 29.4585 35.4996 28.3858 35.4996 27.0627C35.4996 25.7395 36.5723 24.6669 37.8954 24.6669C39.2186 24.6669 40.2912 25.7395 40.2912 27.0627C40.2897 28.3852 39.2179 29.4569 37.8954 29.4585Z" fill="#A02169"/>
</svg>
