<svg width="50" height="50" viewBox="0 0 50 50" fill="none" xmlns="http://www.w3.org/2000/svg">
<circle cx="25" cy="25" r="25" fill="#FFC824"/>
<path d="M21.9791 30.9635L17.7864 26.7708L20.1823 24.375H28.5677L21.9791 30.9635Z" fill="#E34626"/>
<path d="M30.3646 13.5936C29.5307 13.327 29.2359 13.4088 29.1667 14.1926L33.9584 19.5832C35.2556 19.6304 35.4392 19.3182 35.1563 18.3853L30.3646 13.5936Z" fill="#F0950D"/>
<path d="M35.1562 10.5987C34.3223 10.3321 34.0276 11.013 33.9583 11.7968L36.9531 15.3905C38.2503 15.4377 38.434 14.5266 38.151 13.5937L35.1562 10.5987Z" fill="#F0950D"/>
<rect x="14.7917" y="27.9688" width="2.93223" height="8.35613" transform="rotate(-44.0327 14.7917 27.9688)" fill="#F0950D"/>
<rect x="14.7667" y="30.723" width="1.905" height="4.63548" transform="rotate(-44.0327 14.7667 30.723)" fill="#F0950D"/>
<path d="M35.2323 10H34.6328C33.8346 10 33.1855 10.6491 33.1855 11.4473C33.1855 11.834 33.3358 12.1974 33.6093 12.4707L33.9209 12.7823L32.2581 14.4451L31.0191 13.2061C30.7496 12.9367 30.3767 12.7823 29.9957 12.7823C29.1975 12.7823 28.5484 13.4314 28.5484 14.2295V14.8291L28.8201 15.1008L17.8831 26.0378L16.9556 25.1104L13.9814 28.0847L15.3725 29.4758L13.9814 30.8669L14.9224 31.8077L10.7483 36.3619C10.2658 36.8886 10 37.5722 10 38.2863V38.75H10.4637C11.1783 38.75 11.8623 38.4842 12.3881 38.0017L16.9418 33.8276L17.8831 34.7686L19.2742 33.3775L20.6653 34.7686L23.6396 31.7944L22.7122 30.8669L33.6492 19.9299L33.9209 20.2016H34.5205C35.3186 20.2016 35.9677 19.5525 35.9677 18.7543C35.9677 18.3676 35.8174 18.0042 35.5439 17.7309L34.3049 16.4919L35.9677 14.8291L36.2793 15.1407C36.5487 15.4101 36.9217 15.5645 37.3027 15.5645C38.1009 15.5645 38.75 14.9154 38.75 14.1172V13.5177L35.2323 10ZM11.7616 37.3181C11.5428 37.5185 11.2845 37.6636 11.0049 37.7451C11.087 37.466 11.2315 37.2072 11.4323 36.9884L15.5788 32.4643L16.2857 33.1712L11.7616 37.3181ZM17.8831 33.4572L15.2928 30.8669L16.0282 30.1315L18.6185 32.7218L17.8831 33.4572ZM20.6653 33.4572L15.2928 28.0847L16.9556 26.4218L22.3282 31.7944L20.6653 33.4572ZM18.5388 26.6935L20.3936 24.8387H27.429L22.0565 30.2112L18.5388 26.6935ZM28.3564 23.9113H21.321L23.9113 21.321L24.9746 22.3843L25.6303 21.7286L24.567 20.6653L25.3024 19.9299L26.8294 21.4569L27.4851 20.8012L25.9581 19.2742L26.6935 18.5388L27.7568 19.6021L28.4125 18.9463L27.3493 17.8831L28.0847 17.1477L29.6117 18.6746L30.2674 18.0189L28.7404 16.4919L29.4758 15.7565L32.9935 19.2742L28.3564 23.9113ZM35.0403 18.7543C35.0403 19.041 34.8071 19.2742 34.5205 19.2742H34.3049L29.4758 14.4451V14.2295C29.4758 13.9429 29.709 13.7097 29.9957 13.7097C30.1324 13.7097 30.2665 13.7654 30.3634 13.8618L34.8882 18.3866C34.9864 18.4849 35.0403 18.6153 35.0403 18.7543ZM33.6492 15.8362L32.9138 15.1008L34.5766 13.438L35.312 14.1734L33.6492 15.8362ZM37.8226 14.1172C37.8226 14.4039 37.5894 14.6371 37.3027 14.6371C37.166 14.6371 37.0319 14.5814 36.935 14.4849L34.2651 11.815C34.1668 11.7167 34.1129 11.5863 34.1129 11.4473C34.1129 11.1606 34.3461 10.9274 34.6328 10.9274H34.8483L37.8226 13.9017V14.1172Z" fill="#A02169"/>
</svg>
