<svg width="50" height="50" viewBox="0 0 50 50" fill="none" xmlns="http://www.w3.org/2000/svg">
<path d="M50 25C50 38.8071 38.8071 50 25 50C11.1929 50 -5.5073e-06 38.8071 -5.5073e-06 25C-5.5073e-06 11.1929 11.1929 0 25 0C38.8071 0 50 11.1929 50 25Z" fill="#FFC824"/>
<path d="M26.9227 10.7949H24.7954L24.0864 12.9222H21.9591V15.7585H24.0864V17.8858H26.9227V15.7585H29.759V12.9222H26.9227V10.7949Z" fill="#F0950D"/>
<path d="M23.7512 18.1268C23.7512 18.4758 24.0337 18.75 24.3744 18.75H26.8756C27.2246 18.75 27.4988 18.4675 27.4988 18.1268V16.2488H29.3768C29.7258 16.2488 30 15.9663 30 15.6256V13.1244C30 12.7754 29.7175 12.5012 29.3768 12.5012H27.4988V10.6232C27.4988 10.2742 27.2163 10 26.8756 10H24.3744C24.0254 10 23.7512 10.2825 23.7512 10.6232V12.5012H21.8732C21.5242 12.5012 21.25 12.7837 21.25 13.1244V15.6256C21.25 15.9746 21.5325 16.2488 21.8732 16.2488H23.7512V18.1268ZM22.4964 15.0024V13.7559H24.3744C24.7234 13.7559 24.9976 13.4734 24.9976 13.1327V11.2547H26.2441V13.1327C26.2441 13.4817 26.5266 13.7559 26.8673 13.7559H28.7453V15.0024H26.8756C26.5266 15.0024 26.2524 15.2849 26.2524 15.6256V17.5036H25.0059V15.6256C25.0059 15.2766 24.7234 15.0024 24.3827 15.0024H22.4964Z" fill="#A02169"/>
<path d="M16.425 36.0741C16.425 37.0268 15.6527 38.3741 14.7 38.3741C13.7473 38.3741 12.975 37.6018 12.975 36.6491C12.975 35.6964 13.7473 34.9241 14.7 34.9241C15.6527 34.9241 16.425 35.1214 16.425 36.0741Z" fill="#E34626"/>
<circle cx="37.125" cy="36.6491" r="1.725" fill="#E34626"/>
<path d="M13.55 30.8992V25.1492L27.35 25.7242L29.65 29.1742H39.425V30.8992H13.55Z" fill="#F0950D"/>
<path d="M39.4868 28.5616H38.6717C38.4301 27.4748 37.4641 26.6899 36.3471 26.6899H28.5883C28.3468 25.5729 27.3506 24.7577 26.2034 24.7577H17.3276L14.0973 19.0217C14.0068 18.8406 13.8256 18.75 13.6445 18.75H11.7727C11.4104 18.75 11.1086 19.1123 11.3199 19.5349L14.2483 24.7577H13.7049C13.403 24.7577 13.1916 24.9992 13.1614 25.271V30.7051C13.1614 31.007 13.403 31.2183 13.6747 31.2485H14.8219L13.9162 34.0863C12.6482 34.3882 11.8331 35.6864 12.135 36.9543C12.4369 38.2223 13.735 39.0374 15.003 38.7355C16.271 38.4336 17.0861 37.1355 16.7842 35.8675C16.6936 35.475 16.5125 35.143 16.2408 34.8411L16.5427 33.9052H34.8074L35.1093 34.8109C34.2338 35.7769 34.3244 37.2864 35.2904 38.1619C36.2565 39.0374 37.766 38.9468 38.6415 37.9808C39.517 37.0147 39.4264 35.5052 38.4603 34.6297C38.1584 34.358 37.8263 34.1769 37.4339 34.0863L36.5282 31.2183H39.4566C39.7585 31.2183 39.9698 30.9768 40 30.7051V29.0748C40 28.7729 39.7585 28.5616 39.4868 28.5616V28.5616ZM37.5546 28.5616H30.0072C29.4638 28.5616 28.9808 28.2597 28.7695 27.7465H36.3471C36.8603 27.7465 37.3433 28.0484 37.5546 28.5616ZM12.6784 19.8066H13.3124L16.0898 24.7577H15.4559L12.6784 19.8066ZM16.3012 31.2485L15.3653 34.1769C15.2747 34.1467 15.154 34.1165 15.0332 34.0863L15.9389 31.2485H16.3012ZM14.4898 37.7091C13.7652 37.7091 13.1614 37.1053 13.1614 36.3807C13.1614 35.6562 13.7652 35.0524 14.4898 35.0524C15.2143 35.0524 15.8181 35.6562 15.8181 36.3807C15.8181 37.1355 15.2143 37.7091 14.4898 37.7091ZM16.905 32.8485L17.4182 31.2485H33.9923L34.5055 32.8485H16.905ZM38.2188 36.4109C38.2188 37.1355 37.615 37.7393 36.8905 37.7393C36.1659 37.7393 35.5621 37.1355 35.5621 36.4109C35.5621 35.6864 36.1659 35.0826 36.8905 35.0826C37.615 35.0826 38.2188 35.6562 38.2188 36.4109ZM36.3471 34.0863C36.2263 34.1165 36.1357 34.1467 36.015 34.1769L35.0791 31.2183H35.4414L36.3471 34.0863ZM38.9434 30.1919H14.2483V25.8144H26.2335C26.9883 25.8144 27.5921 26.4182 27.5921 27.1729C27.5921 28.5012 28.7091 29.5881 30.0072 29.5881H38.9736L38.9434 30.1919Z" fill="#A02169"/>
</svg>
