<svg width="50" height="50" viewBox="0 0 50 50" fill="none" xmlns="http://www.w3.org/2000/svg">
<path d="M50 25C50 38.8071 38.8071 50 25 50C11.1929 50 -5.5073e-06 38.8071 -5.5073e-06 25C-5.5073e-06 11.1929 11.1929 0 25 0C38.8071 0 50 11.1929 50 25Z" fill="#FFC824"/>
<circle cx="20.625" cy="15.625" r="5.625" fill="#F0950D"/>
<path d="M33.75 26.25C33.125 27.5 33.125 30.625 33.125 30.625L34.375 31.875C34.375 31.875 35 31.875 37.5 31.25C40 30.625 41.25 29.375 41.875 28.125C42.5 26.875 40 23.75 38.125 23.75C36.25 23.75 34.375 25 33.75 26.25Z" fill="#E34626"/>
<path d="M30.3979 14.2617C30.3973 14.261 30.3966 14.261 30.3959 14.261C29.4321 13.5377 28.2905 13.1553 27.0939 13.1553C26.8865 13.1553 26.6757 13.1712 26.4601 13.198C25.7884 11.8257 24.6282 10.7365 23.2036 10.1613C23.7712 9.55918 24.4843 9.08451 25.2689 8.78965L24.7846 7.5C23.7947 7.87133 22.8949 8.47206 22.1812 9.23607C22.0159 9.41313 21.8691 9.59293 21.7327 9.77412C21.4572 9.73692 21.1788 9.71074 20.8936 9.71074C17.4745 9.71074 14.6934 12.4926 14.6934 15.911C14.6934 19.3294 17.4745 22.1113 20.8936 22.1113C21.4882 22.1113 22.062 22.0224 22.607 21.8653C23.3944 22.9676 24.5669 23.7495 25.8979 24.0444C25.8986 24.0444 25.8986 24.0451 25.8993 24.0451C26.2989 24.1332 26.7012 24.178 27.0939 24.178C28.4056 24.178 29.6794 23.7054 30.679 22.8484C30.6797 22.8477 30.6797 22.8477 30.6804 22.847C31.9032 21.7971 32.6052 20.2732 32.6052 18.6667C32.6052 16.921 31.8006 15.3158 30.3979 14.2617ZM20.8936 20.7334C18.2351 20.7334 16.0712 18.5702 16.0712 15.911C16.0712 13.2518 18.2351 11.0886 20.8936 11.0886C20.9122 11.0886 20.9294 11.0913 20.948 11.0913C20.6787 11.69 20.5285 12.2515 20.4458 12.7062L21.8009 12.9535C21.8829 12.5043 22.0476 11.9256 22.3707 11.3221C23.7712 11.774 24.8893 12.8501 25.4047 14.2211C25.4536 14.352 25.497 14.4836 25.5342 14.6158C25.539 14.6331 25.5431 14.6503 25.5473 14.6675C25.5796 14.7874 25.6079 14.9072 25.6313 15.0285C25.641 15.0815 25.6478 15.1353 25.6561 15.1883C25.6699 15.2779 25.6844 15.3674 25.6933 15.4577C25.7071 15.6065 25.7161 15.7581 25.7161 15.911C25.7161 16.2658 25.6726 16.6337 25.5865 17.0043C25.0884 19.1379 23.176 20.7334 20.8936 20.7334ZM25.5376 22.4943C24.9121 22.2394 24.3603 21.8316 23.9256 21.3135C24.9431 20.7403 25.7849 19.8916 26.3437 18.8651L25.5376 22.4943ZM31.1702 17.9778H28.4717L30.0886 15.8228C30.6604 16.4201 31.0352 17.1655 31.1702 17.9778ZM28.9863 14.9947L28.3842 15.7973L27.18 17.4025L26.9843 17.0498C27.0188 16.8652 27.047 16.6778 27.0643 16.4876C27.0836 16.2947 27.0939 16.1018 27.0939 15.911C27.0939 15.683 27.0794 15.4584 27.0553 15.2366C27.0519 15.2042 27.045 15.1725 27.0408 15.1401C27.016 14.941 26.9823 14.7447 26.9389 14.5518C26.9382 14.5469 26.9375 14.5421 26.9361 14.5366C27.6746 14.5042 28.3574 14.6682 28.9863 14.9947ZM26.8824 22.7947L27.4673 20.1616L29.2213 22.2077C28.5213 22.6286 27.7118 22.8374 26.8824 22.7947ZM30.267 21.3101L28.5923 19.3556H31.1695C31.0476 20.0741 30.7362 20.7486 30.267 21.3101Z" fill="#A02169"/>
<path d="M22.6522 27.3882C22.6705 27.1329 22.6464 26.8753 22.5796 26.6242C22.2426 25.3563 20.9375 24.5994 19.6696 24.9364C18.9691 25.1226 18.4034 25.6219 18.1153 26.2652C17.5639 26.1306 16.9657 26.1997 16.4588 26.4662C15.8418 26.1915 15.1575 26.1358 14.4972 26.3114C12.9127 26.7326 11.9663 28.3643 12.3875 29.9488C11.1196 30.2858 10.3627 31.591 10.6997 32.8588C10.8031 33.2479 10.9988 33.5952 11.2686 33.8785C10.8544 34.4477 10.7028 35.1852 10.8888 35.8852C11.2259 37.153 12.531 37.91 13.7988 37.5729C14.6299 37.352 15.2424 36.7142 15.4695 35.9437L16.8947 37.5573L18.3496 40.7714C18.4693 41.0362 18.763 41.176 19.044 41.1012L23.6418 39.8791C23.9596 39.7946 24.148 39.4688 24.0637 39.1516L23.1597 35.751L22.8223 32.1991C22.8191 32.1662 22.8135 32.1338 22.8051 32.1022C24.3896 31.681 25.4047 30.3073 25.0676 29.0394C24.8085 28.0647 23.8246 27.4303 22.6522 27.3882ZM22.4996 30.9527C22.364 30.9888 22.2181 31.0097 22.0272 31.0205C21.8489 31.0303 21.6839 31.1203 21.579 31.2651C21.4741 31.4099 21.4394 31.5939 21.4854 31.7669L21.6432 32.3606L21.9806 35.9124C21.9837 35.9448 21.9892 35.9772 21.9976 36.0088L22.7615 38.8824L19.2253 39.8224L17.9419 36.9854C17.9172 36.9317 17.8854 36.8816 17.8458 36.8368L15.205 33.8468C15.0557 33.6785 14.8241 33.6084 14.6063 33.6663L14.4914 33.6969C14.3034 33.7468 14.1514 33.8857 14.0855 34.0681C14.0185 34.2514 14.0462 34.4551 14.1579 34.6137C14.2511 34.7465 14.3081 34.8593 14.3371 34.9685C14.5057 35.6024 14.1272 36.255 13.4933 36.4235C12.8593 36.592 12.2068 36.2135 12.0383 35.5796C11.9118 35.1037 12.0999 34.5916 12.5069 34.3056C12.6758 34.1863 12.771 33.9887 12.7584 33.7816C12.7453 33.5752 12.626 33.3903 12.4434 33.2936C12.1448 33.1355 11.9339 32.8722 11.8491 32.5532C11.6806 31.9193 12.0591 31.2668 12.693 31.0983C12.808 31.0677 12.9356 31.0596 13.0931 31.0731C13.2857 31.0896 13.4741 31.0112 13.5996 30.8628C13.7244 30.7146 13.7687 30.5151 13.7189 30.3278L13.5369 29.6433C13.2842 28.6927 13.8521 27.7135 14.8027 27.4608C15.2711 27.3363 15.7606 27.4068 16.1798 27.6596C16.3873 27.7854 16.6514 27.7718 16.8449 27.6249C17.2429 27.3235 17.7757 27.3092 18.1927 27.5725C18.3679 27.6828 18.5882 27.6944 18.773 27.6028C18.9586 27.5116 19.0833 27.3302 19.1025 27.1245C19.1488 26.6298 19.4993 26.2123 19.9752 26.0858C20.6091 25.9173 21.2617 26.2958 21.4302 26.9297C21.5052 27.2119 21.4699 27.5142 21.3304 27.7814C21.2233 27.9871 21.2456 28.2353 21.3861 28.4188C21.5271 28.6023 21.7621 28.6875 21.9879 28.6367C22.8938 28.4334 23.7604 28.7513 23.9182 29.345C24.0838 29.968 23.4341 30.7043 22.4996 30.9527Z" fill="#A02169"/>
<path d="M37.8504 22.9614H37.1285C34.7296 22.9614 32.7407 24.7616 32.5017 27.1487L32.2041 30.1269L30.809 30.9639L30.5865 30.7414C30.4577 30.6119 30.2827 30.5395 30.0994 30.5395H29.755C28.4254 30.5395 27.3438 31.6211 27.3438 32.9507C27.3438 34.1708 28.2545 35.1821 29.4319 35.3406C29.5903 36.518 30.6016 37.4287 31.8217 37.4287C33.1513 37.4287 34.2329 36.3471 34.2329 35.0175V34.673C34.2329 34.4905 34.1606 34.3148 34.0311 34.186L33.8086 33.9635L34.6435 32.5718L38.2714 32.2418C40.6819 32.0228 42.4999 30.0318 42.4999 27.6116C42.4999 25.0475 40.4146 22.9614 37.8504 22.9614ZM32.4541 34.5573L32.8551 34.9583V35.0175C32.8551 35.5872 32.3915 36.0509 31.8217 36.0509C31.252 36.0509 30.7883 35.5872 30.7883 35.0175V34.673C30.7883 34.2928 30.4804 33.9841 30.0994 33.9841H29.755C29.1852 33.9841 28.7216 33.5205 28.7216 32.9507C28.7216 32.381 29.1852 31.9174 29.755 31.9174H29.8142L30.2152 32.3183C30.4384 32.5422 30.7849 32.5842 31.057 32.4217L32.7483 31.4069L33.0569 31.7155L33.3656 32.0241L32.3508 33.7154C32.1882 33.9869 32.2309 34.3334 32.4541 34.5573ZM38.1467 30.8695L34.492 31.2016L33.5729 30.2826L33.8733 27.2851C34.0414 25.6055 35.4406 24.3393 37.1285 24.3393H37.8504C39.654 24.3393 41.1221 25.8073 41.1221 27.6116C41.1221 29.3146 39.8435 30.7152 38.1467 30.8695Z" fill="#A02169"/>
<path d="M18.2258 32.0426C17.3587 31.547 16.2279 31.3879 15.2974 31.6353L15.603 32.7847C16.6064 32.518 18.1241 33.0098 18.3602 33.8978L18.9713 36.1966L20.1207 35.8911L19.5096 33.5922C19.3258 32.9008 19.0663 31.2487 20.6227 30.835L20.3171 29.6856C19.1119 30.0059 18.3933 30.8628 18.2258 32.0426Z" fill="#A02169"/>
</svg>
