<svg width="50" height="50" viewBox="0 0 50 50" fill="none" xmlns="http://www.w3.org/2000/svg">
<path d="M50 25C50 38.8071 38.8071 50 25 50C11.1929 50 -5.5073e-06 38.8071 -5.5073e-06 25C-5.5073e-06 11.1929 11.1929 0 25 0C38.8071 0 50 11.1929 50 25Z" fill="#FFC824"/>
<path d="M20.7143 29.2856C19.1071 29.2856 18.5714 29.2856 17.5 30.8928C16.4285 32.4999 16.9643 34.1071 16.9643 34.1071C16.9643 34.1071 16.4285 35.1785 19.1071 36.2499C21.7857 37.3214 29.2857 36.7856 30.8928 36.7856C32.5 36.7856 32.5 35.7142 33.0357 34.6428C33.5714 33.5714 33.0357 31.4285 32.5 30.3571C31.9642 29.2856 29.2857 29.2856 29.2857 29.2856" stroke="#E34626" stroke-width="2"/>
<path d="M15.3572 23.9286L22.3215 25.5357H28.75L34.6429 23.9286" stroke="#F0950D" stroke-width="3" stroke-linecap="round" stroke-linejoin="round"/>
<path d="M35.5388 22.4964C35.0914 22.1492 34.5078 22.03 33.9602 22.1739L31.9813 22.6895C30.6132 23.0458 29.2195 23.2964 27.8127 23.439V23.4024C27.8331 21.8519 28.3835 20.355 29.3721 19.1603C31.2435 16.8457 30.9874 13.474 28.7881 11.4685C26.589 9.46308 23.2079 9.51801 21.0752 11.5942C18.9425 13.6703 18.7965 17.0485 20.742 19.3009C21.7041 20.4612 22.2174 21.9283 22.1884 23.4354V23.439C20.7818 23.2962 19.3881 23.0454 18.02 22.6891L16.0411 22.1734C15.0634 21.9187 14.0643 22.5048 13.8095 23.4825C13.5548 24.4602 14.1409 25.4593 15.1186 25.7141L17.7902 26.4105C18.6242 26.6292 19.4655 26.8075 20.3136 26.9453V27.8081H19.8449C17.5163 27.8108 15.6294 29.6977 15.6266 32.0263V33.9011C15.6266 36.3155 18.101 38.1194 20.3136 38.1194H30.1562C32.485 38.1168 34.3719 36.2297 34.3744 33.9011V32.0263C34.3719 29.6977 32.485 27.8108 30.1562 27.8081H29.6875V26.9467C30.5397 26.8055 31.3851 26.6263 32.2241 26.4091L34.8832 25.715C35.5578 25.5383 36.0737 24.9934 36.213 24.31C36.3524 23.6264 36.0911 22.9232 35.5393 22.4964H35.5388ZM21.4517 18.6864C19.825 16.8079 19.9447 13.9871 21.7247 12.2531C23.5047 10.5192 26.3279 10.4737 28.1631 12.1492C29.998 13.8246 30.209 16.6402 28.6439 18.5701C27.5198 19.9318 26.8957 21.637 26.8753 23.4024V23.5191C25.6269 23.6036 24.3744 23.6036 23.1258 23.5191V23.4354C23.1553 21.7027 22.5612 20.0174 21.4517 18.6864ZM29.6408 30.6202H30.1562C30.9329 30.6202 31.5623 31.2498 31.5623 32.0263V33.9011C31.5623 34.6778 30.9329 35.3072 30.1562 35.3072H19.8449C19.0684 35.3072 18.4388 34.6778 18.4388 33.9011V32.0263C18.4388 31.2498 19.0684 30.6202 19.8449 30.6202H20.3605C20.5848 31.7107 21.5439 32.4937 22.6571 32.495H27.344C28.4574 32.4937 29.4165 31.7107 29.6408 30.6202ZM30.1562 28.7455C31.9673 28.7475 33.435 30.2154 33.437 32.0263V33.9011C33.435 35.7123 31.9673 37.1799 30.1562 37.182H20.3136C18.5796 37.182 16.564 35.7489 16.564 33.9011V32.0263C16.5663 30.2154 18.034 28.7475 19.8449 28.7455H20.3136V29.6829H19.8449C18.5514 29.6845 17.503 30.7328 17.5014 32.0263V33.9011C17.503 35.1948 18.5514 36.2432 19.8449 36.2446H30.1562C31.4499 36.2432 32.4983 35.1948 32.4996 33.9011V32.0263C32.4983 30.7328 31.4499 29.6845 30.1562 29.6829H29.6875V28.7455H30.1562ZM28.7501 30.1516C28.7501 30.9283 28.1207 31.5576 27.344 31.5576H22.6571C21.8806 31.5576 21.251 30.9283 21.251 30.1516V27.0858C22.495 27.2506 23.7482 27.3332 25.0031 27.3334C26.256 27.3327 27.5079 27.2504 28.7501 27.0863V30.1516ZM34.6458 24.8085L31.987 25.5026C27.4099 26.6945 22.6037 26.6945 18.0264 25.5026L15.355 24.8066C14.8783 24.6826 14.5924 24.1954 14.7165 23.7189C14.8408 23.2422 15.3278 22.9564 15.8045 23.0804L17.7831 23.596C19.3753 24.0095 20.9999 24.2846 22.6394 24.4185C22.6454 24.4185 22.6507 24.4224 22.6566 24.4224H22.6642C24.219 24.549 25.7814 24.549 27.3362 24.4224H27.3435C27.3497 24.4224 27.355 24.419 27.3609 24.4185C29.0007 24.2853 30.626 24.0109 32.2186 23.5978L34.1977 23.0822C34.6745 22.9582 35.1615 23.244 35.2857 23.7207C35.4098 24.1974 35.1239 24.6844 34.6472 24.8085H34.6458Z" fill="#A02169"/>
</svg>
